<svg width="20" height="21" viewBox="0 0 20 21" fill="none" xmlns="http://www.w3.org/2000/svg">
<path d="M15.8307 17.1668H4.16406V18.0002C4.16406 18.2212 4.07627 18.4331 3.91998 18.5894C3.7637 18.7457 3.55174 18.8335 3.33073 18.8335H2.4974C2.27638 18.8335 2.06442 18.7457 1.90814 18.5894C1.75186 18.4331 1.66406 18.2212 1.66406 18.0002V9.66683L3.73073 4.8435C3.85933 4.5435 4.07319 4.28786 4.34577 4.10831C4.61836 3.92876 4.93766 3.83321 5.26406 3.8335H14.7307C15.0568 3.83353 15.3758 3.92924 15.648 4.10877C15.9203 4.2883 16.1339 4.54376 16.2624 4.8435L18.3307 9.66683V18.0002C18.3307 18.2212 18.2429 18.4331 18.0867 18.5894C17.9304 18.7457 17.7184 18.8335 17.4974 18.8335H16.6641C16.443 18.8335 16.2311 18.7457 16.0748 18.5894C15.9185 18.4331 15.8307 18.2212 15.8307 18.0002V17.1668ZM16.6641 11.3335H3.33073V15.5002H16.6641V11.3335ZM3.4774 9.66683H16.5174L14.7316 5.50016H5.26406L3.47823 9.66683H3.4774ZM5.41406 14.6668C5.08254 14.6668 4.7646 14.5351 4.53018 14.3007C4.29576 14.0663 4.16406 13.7484 4.16406 13.4168C4.16406 13.0853 4.29576 12.7674 4.53018 12.5329C4.7646 12.2985 5.08254 12.1668 5.41406 12.1668C5.74558 12.1668 6.06353 12.2985 6.29795 12.5329C6.53237 12.7674 6.66406 13.0853 6.66406 13.4168C6.66406 13.7484 6.53237 14.0663 6.29795 14.3007C6.06353 14.5351 5.74558 14.6668 5.41406 14.6668ZM14.5807 14.6668C14.2492 14.6668 13.9313 14.5351 13.6968 14.3007C13.4624 14.0663 13.3307 13.7484 13.3307 13.4168C13.3307 13.0853 13.4624 12.7674 13.6968 12.5329C13.9313 12.2985 14.2492 12.1668 14.5807 12.1668C14.9123 12.1668 15.2302 12.2985 15.4646 12.5329C15.699 12.7674 15.8307 13.0853 15.8307 13.4168C15.8307 13.7484 15.699 14.0663 15.4646 14.3007C15.2302 14.5351 14.9123 14.6668 14.5807 14.6668Z" fill="#9CA3AF"/>
</svg>
