<svg width="20" height="21" viewBox="0 0 20 21" fill="none" xmlns="http://www.w3.org/2000/svg">
<path d="M9.08451 2.25L17.3337 3.42917L18.512 11.6792L10.852 19.3392C10.6957 19.4954 10.4838 19.5832 10.2628 19.5832C10.0419 19.5832 9.82995 19.4954 9.67368 19.3392L1.42368 11.0892C1.26745 10.9329 1.17969 10.721 1.17969 10.5C1.17969 10.279 1.26745 10.0671 1.42368 9.91083L9.08451 2.25ZM9.67368 4.01833L3.19118 10.5L10.2628 17.5708L16.7445 11.0892L15.8612 4.90167L9.67368 4.01833V4.01833ZM11.4403 9.32167C11.1277 9.00893 10.9521 8.58482 10.9522 8.14262C10.9522 7.92367 10.9954 7.70687 11.0792 7.5046C11.1631 7.30233 11.2859 7.11855 11.4408 6.96375C11.5956 6.80895 11.7794 6.68617 11.9817 6.60242C12.184 6.51867 12.4009 6.47558 12.6198 6.47562C13.062 6.4757 13.4861 6.65143 13.7987 6.96417C14.1113 7.2769 14.2869 7.70102 14.2868 8.14321C14.2867 8.58541 14.111 9.00946 13.7983 9.32208C13.4855 9.63471 13.0614 9.81029 12.6192 9.81021C12.177 9.81014 11.753 9.6344 11.4403 9.32167V9.32167Z" fill="#9CA3AF"/>
</svg>
