<svg width="20" height="21" viewBox="0 0 20 21" fill="none" xmlns="http://www.w3.org/2000/svg">
<path d="M13.7752 13.7921L15.5419 12.0238L12.8911 9.37214L15.8369 6.42631L14.0702 4.65881L11.1236 7.60464L8.47191 4.95297L6.70357 6.72047L13.7752 13.7921ZM12.5961 14.9705L5.52524 7.89964L3.16857 10.2563L10.2394 17.3271L12.5961 14.9705ZM11.1236 5.24797L13.4802 2.89047C13.6365 2.73425 13.8484 2.64648 14.0694 2.64648C14.2904 2.64648 14.5023 2.73425 14.6586 2.89047L17.6052 5.83714C17.7615 5.99341 17.8492 6.20534 17.8492 6.42631C17.8492 6.64728 17.7615 6.8592 17.6052 7.01547L15.2477 9.37214L17.3102 11.4346C17.3877 11.512 17.4492 11.6039 17.4911 11.7051C17.5331 11.8063 17.5546 11.9147 17.5546 12.0242C17.5546 12.1337 17.5331 12.2422 17.4911 12.3433C17.4492 12.4445 17.3877 12.5364 17.3102 12.6138L10.8286 19.0955C10.6723 19.2517 10.4604 19.3395 10.2394 19.3395C10.0184 19.3395 9.80651 19.2517 9.65024 19.0955L1.40024 10.8455C1.24401 10.6892 1.15625 10.4773 1.15625 10.2563C1.15625 10.0353 1.24401 9.82341 1.40024 9.66714L7.88191 3.18547C7.9593 3.10799 8.05121 3.04653 8.15237 3.00459C8.25354 2.96265 8.36198 2.94107 8.47149 2.94107C8.581 2.94107 8.68944 2.96265 8.79061 3.00459C8.89177 3.04653 8.98368 3.10799 9.06107 3.18547L11.1236 5.24797Z" fill="#0C0B10"/>
</svg>
