<svg width="20" height="20" viewBox="0 0 20 20" fill="none" xmlns="http://www.w3.org/2000/svg">
<path d="M5.4495 2.5H17.5037C17.7247 2.5 17.9366 2.5878 18.0929 2.74408C18.2492 2.90036 18.337 3.11232 18.337 3.33333V16.6667C18.337 16.8877 18.2492 17.0996 18.0929 17.2559C17.9366 17.4122 17.7247 17.5 17.5037 17.5H5.4495C5.31234 17.5 5.17729 17.4662 5.05635 17.4015C4.9354 17.3368 4.83229 17.2433 4.75617 17.1292L0.312 10.4625C0.220634 10.3256 0.171875 10.1646 0.171875 10C0.171875 9.83538 0.220634 9.67444 0.312 9.5375L4.75617 2.87083C4.83229 2.75674 4.9354 2.66319 5.05635 2.5985C5.17729 2.53381 5.31234 2.49998 5.4495 2.5ZM5.89533 4.16667L2.007 10L5.89533 15.8333H16.6703V4.16667H5.89533ZM10.837 8.82167L13.1937 6.46417L14.3728 7.64333L12.0153 10L14.3728 12.3567L13.1937 13.5358L10.837 11.1783L8.48033 13.5358L7.30117 12.3567L9.65867 10L7.30117 7.64333L8.48033 6.46417L10.837 8.82167Z" fill="#6B7280"/>
</svg>
