<svg width="140" height="60" viewBox="0 0 140 60" fill="none" xmlns="http://www.w3.org/2000/svg">
<g clip-path="url(#clip0_3301_154111)">
<g clip-path="url(#clip1_3301_154111)">
<g clip-path="url(#clip2_3301_154111)">
<path fill-rule="evenodd" clip-rule="evenodd" d="M136.383 34.2162H117.881L118.444 31.9672H136.882L137.758 28.842H114.758L113.257 34.3415C112.944 35.7171 113.195 37.3423 114.82 37.3423H135.508L136.383 34.2162V34.2162ZM115.319 26.5289C115.694 25.0911 116.132 23.4037 118.82 23.4037H139.134L138.321 26.5289H115.319ZM59.6902 23.4037L58.8771 26.5289H76.3169C79.1284 26.5911 78.8467 28.7724 78.6912 29.5919C78.4415 30.9044 76.7531 33.7177 74.3788 34.2162H61.4408L62.691 29.2791H58.1271L56.0656 37.3423H76.0672C80.7546 37.3423 83.566 31.53 83.6913 29.3413C83.8167 27.1527 83.7535 23.4037 77.1281 23.4037H59.6902V23.4037ZM50.8139 23.4037C55.5022 23.4037 57.0653 26.5911 56.6272 29.6541C55.5644 35.8415 50.1883 37.3423 48.1881 37.3423H35.1256C30.4383 37.3423 28.8752 34.1558 29.3124 31.0919C30.3752 24.9037 37.0637 23.4037 39.0639 23.4037L41.3139 26.1539C38.6259 26.1539 34.126 27.4673 33.7501 30.7791C33.3751 34.0927 35.3122 34.593 37.8759 34.593H45.9381C48.6253 34.593 51.8136 33.2796 52.1886 29.9669C52.5636 26.6542 50.6264 26.1539 48.0637 26.1539H41.3139L39.0639 23.4037H50.8139V23.4037ZM113.006 26.5289H95.3179C92.6298 26.5289 89.3784 28.2786 89.1927 30.7791C88.943 34.1037 90.754 34.2162 93.3176 34.2162H101.881C103.896 34.2162 105.103 33.6894 105.74 31.9653H95.8794L96.6925 28.841H112.325C112.318 29.1118 112.171 29.3834 112.132 29.6541C111.069 35.8415 105.632 37.3423 103.631 37.3423H90.5665C85.8791 37.3423 84.316 34.1558 84.7541 31.0919C85.8169 24.9037 92.5054 23.4037 94.5057 23.4037H109.818C111.694 23.4037 113.069 24.2159 113.006 26.5289C113.069 24.2159 113.006 26.5289 113.006 26.5289ZM3.93566 23.4037L3.12349 26.5289H20.5623C23.3748 26.5911 23.094 28.7724 22.9376 29.5919C22.6879 30.9044 21.0004 33.7177 18.6252 34.2162H5.68622L6.93558 29.2791H2.37351L0.310154 37.3423H20.3117C24.9991 37.3423 27.8124 31.53 27.9377 29.3413C28.063 27.1527 27.9999 23.4037 21.3745 23.4037H3.93566ZM-18.9405 18.3093C-14.1279 18.3093 -10.4713 18.6221 -8.471 18.8096C-7.34603 18.934 -5.87717 19.6218 -5.90827 21.5598C-5.87626 22.9345 -6.00156 31.8108 -6.25125 34.561C-6.31344 36.4991 -6.56404 38.2176 -8.47009 39.531C-10.87 41.1837 -13.5956 43.1254 -18.9396 45.4064C-24.2837 43.1254 -27.0092 41.1837 -29.4091 39.531C-31.3152 38.2176 -31.5658 36.5 -31.628 34.561C-31.8786 31.8108 -32.003 22.9354 -31.9719 21.5598C-32.0039 19.6218 -30.535 18.9349 -29.41 18.8096C-27.4098 18.6221 -23.7532 18.3093 -18.9405 18.3093C-23.7532 18.3093 -18.9405 18.3093 -18.9405 18.3093Z" fill="#0C0B10"/>
</g>
</g>
</g>
<defs>
<clipPath id="clip0_3301_154111">
<rect width="140" height="27.451" fill="white" transform="translate(0 16.2744)"/>
</clipPath>
<clipPath id="clip1_3301_154111">
<rect width="140" height="27.451" fill="white" transform="translate(0 17.647)"/>
</clipPath>
<clipPath id="clip2_3301_154111">
<rect width="141.728" height="27.6543" fill="white" transform="translate(-1.72656 17.9878)"/>
</clipPath>
</defs>
</svg>
