<svg width="192" height="56" viewBox="0 0 192 56" fill="none" xmlns="http://www.w3.org/2000/svg">
<path d="M0 29.6218C0 27.3844 0.367332 25.2743 1.10471 23.2915C1.84077 21.3086 2.90592 19.5804 4.30014 18.1085C5.69304 16.6365 7.38522 15.4684 9.37664 14.6045C11.3674 13.7418 13.6372 13.309 16.1855 13.309C17.8582 13.309 19.3899 13.4557 20.7842 13.7499C22.1778 14.0444 23.5318 14.4674 24.8456 15.0165L22.9943 22.0247C22.1584 21.7111 21.2418 21.4359 20.2468 21.2004C19.2511 20.9649 18.1359 20.8472 16.902 20.8472C14.2746 20.8472 12.3123 21.6523 11.0195 23.2613C9.72522 24.8716 9.07808 26.9913 9.07808 29.6218C9.07808 32.4098 9.68491 34.5691 10.9 36.1C12.1138 37.6309 14.2344 38.3965 17.2604 38.3965C18.3359 38.3965 19.49 38.2992 20.7245 38.1019C21.9583 37.9063 23.0931 37.5927 24.1289 37.1599L25.3837 44.3448C24.3477 44.7775 23.0541 45.1485 21.5009 45.4636C19.9482 45.7772 18.236 45.9346 16.3647 45.9346C13.4977 45.9346 11.0285 45.5128 8.95862 44.668C6.88808 43.8245 5.18552 42.6769 3.85225 41.2228C2.51777 39.7712 1.54214 38.0527 0.925611 36.0699C0.307605 34.0885 0 31.9388 0 29.6218Z" fill="white"/>
<path d="M44.0011 38.9881C44.8768 38.9881 45.7127 38.969 46.5098 38.9293C47.3055 38.8909 47.943 38.8322 48.4213 38.7526V32.0977C48.0624 32.0198 47.525 31.9417 46.8085 31.8622C46.0918 31.7841 45.4349 31.7444 44.8378 31.7444C44.0011 31.7444 43.2144 31.7938 42.4784 31.8923C41.741 31.9909 41.0944 32.1772 40.537 32.4511C39.9793 32.7263 39.5412 33.0986 39.2232 33.5698C38.9039 34.0408 38.7455 34.631 38.7455 35.3375C38.7455 36.7125 39.2129 37.6627 40.1488 38.194C41.0841 38.7239 42.368 38.9881 44.0011 38.9881ZM43.2846 13.312C45.9128 13.312 48.102 13.6065 49.8545 14.1952C51.6064 14.7839 53.0097 15.6289 54.0652 16.7271C55.12 17.8267 55.8664 19.1616 56.3051 20.7324C56.7425 22.303 56.962 24.0503 56.962 25.9727V44.2301C55.6871 44.5052 53.9159 44.8284 51.646 45.2022C49.3769 45.5747 46.6293 45.7607 43.404 45.7607C41.3737 45.7607 39.5315 45.5842 37.8797 45.231C36.2264 44.8776 34.8035 44.2984 33.6094 43.4933C32.4144 42.6896 31.4978 41.6392 30.8618 40.3425C30.2243 39.0471 29.9062 37.4573 29.9062 35.573C29.9062 33.7669 30.2736 32.236 31.0111 30.979C31.747 29.7234 32.733 28.7224 33.9676 27.9761C35.2008 27.2297 36.6152 26.6902 38.208 26.3563C39.8003 26.0234 41.4529 25.8549 43.1652 25.8549C44.3197 25.8549 45.3454 25.9056 46.2411 26.0028C47.1368 26.1014 47.8632 26.2288 48.4213 26.3849V25.5607C48.4213 24.0694 47.963 22.8726 47.0473 21.9689C46.1307 21.0665 44.5385 20.6146 42.2694 20.6146C40.7556 20.6146 39.2628 20.7228 37.79 20.9378C36.3159 21.1542 35.0424 21.4594 33.9676 21.8511L32.8322 14.7839C33.3497 14.6278 33.9975 14.4594 34.7738 14.2828C35.5502 14.1061 36.3958 13.9502 37.3123 13.8118C38.2274 13.6748 39.1933 13.557 40.2084 13.4586C41.2244 13.3612 42.2486 13.312 43.2846 13.312Z" fill="white"/>
<path d="M83.9486 21.9011C83.1516 21.7053 82.2169 21.4987 81.1413 21.2823C80.0664 21.0673 78.911 20.9591 77.6779 20.9591C77.1195 20.9591 76.453 21.0084 75.6767 21.1056C74.9004 21.2042 74.3123 21.3124 73.9151 21.4301V45.1045H65.0156V15.7762C66.6076 15.2271 68.4888 14.7069 70.66 14.2151C72.8292 13.725 75.2483 13.4798 77.9167 13.4798C78.3944 13.4798 78.9708 13.5086 79.6485 13.5674C80.3248 13.6264 81.0017 13.7057 81.6794 13.8031C82.3557 13.9015 83.032 14.0195 83.7097 14.1563C84.3868 14.2947 84.9637 14.4616 85.4422 14.6575L83.9486 21.9011Z" fill="white"/>
<path d="M88.1328 29.6218C88.1328 27.3844 88.5001 25.2743 89.2377 23.2915C89.9735 21.3086 91.0388 19.5804 92.433 18.1085C93.826 16.6365 95.518 15.4684 97.5096 14.6045C99.5002 13.7418 101.77 13.309 104.318 13.309C105.991 13.309 107.523 13.4557 108.917 13.7499C110.311 14.0444 111.665 14.4674 112.978 15.0165L111.127 22.0247C110.291 21.7111 109.375 21.4359 108.38 21.2004C107.384 20.9649 106.269 20.8472 105.035 20.8472C102.407 20.8472 100.445 21.6523 99.1523 23.2613C97.8581 24.8716 97.2109 26.9913 97.2109 29.6218C97.2109 32.4098 97.8179 34.5691 99.0329 36.1C100.247 37.6309 102.367 38.3965 105.393 38.3965C106.469 38.3965 107.623 38.2992 108.857 38.1019C110.091 37.9063 111.226 37.5927 112.262 37.1599L113.516 44.3448C112.481 44.7775 111.187 45.1485 109.634 45.4636C108.081 45.7772 106.369 45.9346 104.498 45.9346C101.631 45.9346 99.1614 45.5128 97.0915 44.668C95.021 43.8245 93.3184 42.6769 91.9853 41.2228C90.6507 39.7712 89.6751 38.0527 89.0584 36.0699C88.4405 34.0885 88.1328 31.9388 88.1328 29.6218Z" fill="white"/>
<path d="M129.225 5.18293C129.225 6.79319 128.697 8.05852 127.642 8.9814C126.587 9.90428 125.343 10.3643 123.909 10.3643C122.476 10.3643 121.231 9.90428 120.176 8.9814C119.121 8.05852 118.594 6.79319 118.594 5.18293C118.594 3.57247 119.121 2.30714 120.176 1.38427C121.231 0.461388 122.476 -5.43594e-05 123.909 -5.43594e-05C125.343 -5.43594e-05 126.587 0.461388 127.642 1.38427C128.697 2.30714 129.225 3.57247 129.225 5.18293Z" fill="white"/>
<path d="M128.392 45.1045H119.492V14.1275H128.392V45.1045Z" fill="white"/>
<path d="M136.453 6.40554L145.352 4.99236V14.1202H156.043V21.4229H145.352V32.3174C145.352 34.1631 145.681 35.635 146.338 36.7347C146.995 37.8343 148.318 38.3834 150.31 38.3834C151.265 38.3834 152.25 38.2957 153.266 38.119C154.281 37.9425 155.207 37.6974 156.043 37.3823L157.298 44.2141C156.222 44.6466 155.028 45.0192 153.714 45.3327C152.4 45.6463 150.787 45.8037 148.876 45.8037C146.447 45.8037 144.436 45.4806 142.844 44.8315C141.251 44.1837 139.977 43.2814 139.022 42.123C138.065 40.9659 137.399 39.561 137.02 37.9123C136.642 36.2637 136.453 34.4383 136.453 32.4351V6.40554Z" fill="white"/>
<path d="M191.819 14.1277C190.022 20.0952 188.146 25.6902 186.19 30.9117C184.234 36.1341 182.098 41.1979 179.783 46.1057C178.945 47.8721 178.108 49.3742 177.271 50.6107C176.433 51.8471 175.515 52.8687 174.519 53.6739C173.522 54.4776 172.395 55.0666 171.139 55.4404C169.883 55.8128 168.418 55.999 166.744 55.999C165.348 55.999 164.061 55.8717 162.885 55.6169C161.709 55.3608 160.742 55.0761 159.984 54.7626L161.537 47.7543C162.454 48.0692 163.27 48.2841 163.987 48.4019C164.704 48.5199 165.461 48.5786 166.259 48.5786C167.851 48.5786 169.076 48.1569 169.933 47.3133C170.789 46.4685 171.516 45.3004 172.114 43.8093C170.082 39.8833 168.05 35.4756 166.018 30.5885C163.987 25.7 162.075 20.213 160.283 14.1277H169.72C170.119 15.6586 170.589 17.3183 171.13 19.1038C171.669 20.8908 172.239 22.6957 172.84 24.5223C173.439 26.3477 174.049 28.125 174.669 29.8517C175.288 31.5797 175.879 33.1491 176.439 34.5635C176.958 33.1491 177.498 31.5797 178.058 29.8517C178.618 28.125 179.168 26.3477 179.707 24.5223C180.246 22.6957 180.767 20.8908 181.267 19.1038C181.766 17.3183 182.216 15.6586 182.616 14.1277H191.819Z" fill="white"/>
</svg>
