<svg width="140" height="60" viewBox="0 0 140 60" fill="none" xmlns="http://www.w3.org/2000/svg">
<g clip-path="url(#clip0_3301_154065)">
<path fill-rule="evenodd" clip-rule="evenodd" d="M1.50781 35.3153H4.29045V25.5753H1.50781V22.6539H13.4739V25.5753H10.6913V29.1241H20.2926V25.5753H17.5092V22.6539H29.4753V25.5753H26.6927V35.3153H29.4753V38.2375H17.5092V35.3153H20.2926V32.3246H10.6913V35.3153H13.4739V38.2375H1.50781V35.3153ZM83.7415 25.5753H80.9588V38.2375H73.1667L63.079 25.5753V35.3153H65.931V38.2375H56.6782V35.3153H59.4608V25.5753H56.6782V22.6539H68.366L77.3414 33.9941V25.5753H74.5588V22.6539H83.7415V25.5753ZM42.9731 22.2361C46.3122 22.2361 49.8603 22.7927 52.017 24.2541C54.2431 25.7842 55.2175 28.1498 55.2175 30.4453C55.2175 32.7408 54.2431 35.246 52.017 36.7066C49.8603 38.2375 46.3122 38.7246 42.9731 38.7246C39.5637 38.7246 36.085 38.2375 33.9283 36.7066C31.7022 35.246 30.7287 32.7408 30.7287 30.4453C30.7287 28.1498 31.703 25.7842 33.9283 24.2541C36.085 22.7927 39.5637 22.2361 42.9731 22.2361ZM42.9731 25.5753C45.8952 25.5753 48.2601 27.8014 48.2601 30.4453C48.2601 33.1586 45.8944 35.3153 42.9731 35.3153C39.9815 35.3153 37.6159 33.1586 37.6159 30.4453C37.6159 27.8022 39.9807 25.5753 42.9731 25.5753ZM86.733 35.3153H89.4471V25.5753H86.733V22.6539H100.856C105.517 22.6539 110.875 24.0445 110.944 30.4453C111.014 36.8462 104.683 38.2375 100.856 38.2375H86.733V35.3153ZM104.892 30.4453C104.892 26.8973 102.039 25.5753 99.0476 25.5753H95.9859V35.3153H99.0476C101.551 35.3153 104.892 33.9942 104.892 30.4453ZM125.625 35.3153H128.824L127.016 32.3238H119.919L118.389 35.3153H120.893V38.2375H111.083V35.3153H114.075L118.876 25.5753H116.093V22.6539H128.199L135.712 35.3153H138.495V38.2375H125.625V35.3153ZM125.346 29.4016L123.119 25.7148L121.311 29.4016H125.346ZM53.445 12.0791H86.5381C82.5676 12.5094 77.311 12.705 69.967 12.705C62.648 12.705 57.4054 12.5094 53.445 12.0791Z" fill="#0C0B10"/>
</g>
<defs>
<clipPath id="clip0_3301_154065">
<rect width="140" height="18" fill="white" transform="translate(0 21)"/>
</clipPath>
</defs>
</svg>
