<svg width="140" height="60" viewBox="0 0 140 60" fill="none" xmlns="http://www.w3.org/2000/svg">
<g clip-path="url(#clip0_3301_154073)">
<path d="M97.4166 31.1363C97.3499 34.8123 98.1445 36.7593 101.178 36.7593C104.206 36.7593 104.64 33.4426 104.64 30.9186C104.64 28.3931 104.065 25.9413 100.884 25.9413C98.9325 25.9413 97.4915 27.4564 97.4166 31.1363ZM91.2805 46.4977V21.6146H97.4915V22.6239C97.4915 23.9703 98.0351 23.4151 98.473 22.8904C98.5463 22.8027 99.9305 21.1099 103.048 21.1099C106.156 21.1099 110.991 23.273 110.991 30.9187C110.991 36.8327 108.107 41.1594 103.125 41.1594C100.38 41.1594 98.7925 40.0795 98.4296 39.6437C98.0661 39.2139 97.5616 39.1389 97.5616 39.6437V46.4976H91.2805V46.4977ZM43.2746 13.5386H49.9885V31.1363C49.9885 34.1633 48.6876 40.512 39.3768 40.512C30.0649 40.512 29.0547 34.5947 29.0547 31.2795V28.0344H35.5519V31.2062C35.5519 33.1533 36.8517 34.9556 39.3046 34.9556C41.7586 34.9556 43.2746 33.5859 43.2746 31.2795V13.5386ZM64.0294 28.4669C64.0294 26.6619 63.0209 24.9313 60.7108 24.9313C58.473 24.9313 57.6783 26.5165 57.6783 28.4669H64.0294ZM60.0633 20.8934C65.3359 20.8934 69.9538 22.9121 69.9538 32.2161H57.4666C57.4666 35.1732 58.6925 36.3996 60.858 36.3996C63.0241 36.3996 63.7455 34.6674 63.7455 34.6674H69.8832C69.8832 37.3368 66.2011 40.9429 60.6413 40.8713C54.2907 40.8713 51.1861 36.1831 51.1861 31.3506C51.1861 26.5165 53.9273 20.8934 60.0633 20.8934V20.8934ZM83.9919 28.4669C83.9919 26.6619 82.9822 24.9313 80.6721 24.9313C78.4355 24.9313 77.6391 26.5165 77.6391 28.4669H83.9919ZM80.0258 20.8934C85.2978 20.8934 89.9146 22.9121 89.9146 32.2161H77.4279C77.4279 35.1732 78.6549 36.3996 80.8222 36.3996C82.9861 36.3996 83.7085 34.6674 83.7085 34.6674H89.8462C89.8462 37.3368 86.1635 40.9429 80.6055 40.8713C74.2515 40.8713 71.1468 36.1831 71.1468 31.3506C71.1468 26.5165 73.8914 20.8934 80.0258 20.8934V20.8934ZM106.88 43.5146C106.88 42.5291 107.683 41.7285 108.673 41.7285C109.659 41.7285 110.461 42.5291 110.461 43.5146C110.461 44.4984 109.659 45.304 108.673 45.304C107.683 45.304 106.88 44.4984 106.88 43.5146ZM106.673 43.5146C106.673 44.6172 107.567 45.5122 108.673 45.5122C109.771 45.5122 110.67 44.6172 110.67 43.5146C110.67 42.4119 109.771 41.5169 108.673 41.5169C107.567 41.5169 106.673 42.4119 106.673 43.5146Z" fill="#0C0B10"/>
<path d="M109.474 44.5399L109.058 43.5605C109.19 43.5149 109.234 43.4827 109.304 43.4078C109.395 43.3101 109.452 43.1558 109.452 43.0158C109.452 42.6627 109.181 42.4224 108.787 42.4224H107.953V44.5398H108.2V43.6227H108.803L109.198 44.5399H109.474H109.474ZM108.194 43.4078V42.6527H108.782C109.027 42.6527 109.183 42.7927 109.183 43.0092C109.183 43.2552 109.018 43.4078 108.747 43.4078H108.194" fill="#0C0B10"/>
</g>
<defs>
<clipPath id="clip0_3301_154073">
<rect width="82" height="33" fill="white" transform="translate(29 13.5)"/>
</clipPath>
</defs>
</svg>
