<svg width="144" height="44" viewBox="0 0 144 44" fill="none" xmlns="http://www.w3.org/2000/svg">
<g clip-path="url(#clip0_3080_155528)">
<path d="M0 23.86C0 22.1519 0.276474 20.5409 0.831464 19.0271C1.38546 17.5134 2.18715 16.194 3.23651 15.0702C4.28489 13.9465 5.55851 13.0546 7.05736 12.3951C8.5557 11.7365 10.2641 11.4061 12.1821 11.4061C13.441 11.4061 14.5939 11.518 15.6433 11.7427C16.6922 11.9675 17.7113 12.2905 18.7001 12.7097L17.3067 18.06C16.6776 17.8206 15.9877 17.6106 15.2388 17.4308C14.4894 17.251 13.6501 17.1611 12.7214 17.1611C10.7438 17.1611 9.26691 17.7758 8.29384 19.0042C7.31972 20.2335 6.83265 21.8518 6.83265 23.86C6.83265 25.9885 7.28938 27.637 8.20393 28.8058C9.11751 29.9746 10.7136 30.559 12.9911 30.559C13.8006 30.559 14.6692 30.4848 15.5984 30.3341C16.527 30.1848 17.3811 29.9454 18.1607 29.615L19.1051 35.1003C18.3254 35.4306 17.3518 35.7138 16.1827 35.9544C15.0141 36.1938 13.7254 36.314 12.3169 36.314C10.1591 36.314 8.30064 35.992 6.74274 35.347C5.18434 34.703 3.90289 33.8269 2.89941 32.7167C1.89501 31.6086 1.16069 30.2966 0.696664 28.7828C0.23152 27.2702 0 25.6289 0 23.86Z" fill="#0C0B10"/>
<path d="M33.1163 31.0091C33.7754 31.0091 34.4046 30.9946 35.0046 30.9643C35.6034 30.9349 36.0833 30.8901 36.4432 30.8293V25.7487C36.1731 25.6892 35.7686 25.6296 35.2293 25.5689C34.6899 25.5092 34.1955 25.479 33.7461 25.479C33.1163 25.479 32.5243 25.5167 31.9703 25.5919C31.4153 25.6672 30.9286 25.8094 30.5091 26.0185C30.0893 26.2286 29.7596 26.5128 29.5202 26.8726C29.2799 27.2321 29.1607 27.6827 29.1607 28.2221C29.1607 29.2718 29.5125 29.9973 30.2169 30.4029C30.9209 30.8075 31.8872 31.0091 33.1163 31.0091ZM32.577 11.4068C34.5552 11.4068 36.2029 11.6316 37.5219 12.0811C38.8405 12.5305 39.8967 13.1757 40.6912 14.014C41.485 14.8535 42.0468 15.8726 42.377 17.0719C42.7062 18.2709 42.8714 19.6049 42.8714 21.0726V35.0111C41.9119 35.2212 40.5788 35.4679 38.8703 35.7532C37.1624 36.0377 35.0944 36.1797 32.6669 36.1797C31.1388 36.1797 29.7523 36.0449 28.5091 35.7753C27.2647 35.5054 26.1938 35.0633 25.295 34.4486C24.3956 33.835 23.7057 33.0331 23.227 32.0431C22.7472 31.0541 22.5078 29.8405 22.5078 28.4019C22.5078 27.023 22.7843 25.8542 23.3394 24.8946C23.8932 23.936 24.6354 23.1718 25.5646 22.602C26.4927 22.0322 27.5573 21.6203 28.7562 21.3654C29.9546 21.1112 31.1984 20.9827 32.4872 20.9827C33.3562 20.9827 34.1281 21.0214 34.8023 21.0955C35.4765 21.1709 36.0232 21.268 36.4432 21.3873V20.758C36.4432 19.6195 36.0983 18.7058 35.4091 18.0158C34.7192 17.327 33.5209 16.982 31.813 16.982C30.6736 16.982 29.55 17.0646 28.4415 17.2287C27.3321 17.3939 26.3735 17.6269 25.5646 17.9259L24.7101 12.5305C25.0995 12.4113 25.5871 12.2827 26.1714 12.148C26.7557 12.0131 27.3922 11.894 28.082 11.7884C28.7708 11.6838 29.4977 11.5939 30.2618 11.5187C31.0264 11.4444 31.7973 11.4068 32.577 11.4068Z" fill="#0C0B10"/>
<path d="M63.1874 17.9656C62.5876 17.8161 61.8841 17.6584 61.0746 17.4932C60.2655 17.3291 59.3959 17.2465 58.4678 17.2465C58.0476 17.2465 57.5459 17.2841 56.9616 17.3583C56.3773 17.4336 55.9347 17.5162 55.6357 17.6061V35.6802H48.9375V13.2896C50.1357 12.8704 51.5516 12.4732 53.1857 12.0978C54.8184 11.7236 56.6391 11.5364 58.6475 11.5364C59.007 11.5364 59.4409 11.5584 59.951 11.6033C60.46 11.6483 60.9695 11.7089 61.4796 11.7832C61.9886 11.8584 62.4976 11.9484 63.0077 12.0529C63.5173 12.1585 63.9515 12.286 64.3116 12.4355L63.1874 17.9656Z" fill="#0C0B10"/>
<path d="M66.3359 23.86C66.3359 22.1519 66.6124 20.5409 67.1675 19.0271C67.7214 17.5134 68.5231 16.194 69.5725 15.0702C70.6209 13.9465 71.8945 13.0546 73.3934 12.3951C74.8917 11.7365 76.6002 11.4061 78.518 11.4061C79.777 11.4061 80.9298 11.518 81.9794 11.7427C83.0283 11.9675 84.0472 12.2905 85.036 12.7097L83.6428 18.06C83.0135 17.8206 82.3237 17.6106 81.5748 17.4308C80.8254 17.251 79.986 17.1611 79.0575 17.1611C77.0798 17.1611 75.6029 17.7758 74.6298 19.0042C73.6557 20.2335 73.1686 21.8518 73.1686 23.86C73.1686 25.9885 73.6254 27.637 74.5399 28.8058C75.4534 29.9746 77.0495 30.559 79.3271 30.559C80.1366 30.559 81.0051 30.4848 81.9344 30.3341C82.8631 30.1848 83.717 29.9454 84.4968 29.615L85.441 35.1003C84.6613 35.4306 83.6877 35.7138 82.5187 35.9544C81.3501 36.1938 80.0613 36.314 78.6529 36.314C76.4951 36.314 74.6366 35.992 73.0787 35.347C71.5204 34.703 70.2389 33.8269 69.2355 32.7167C68.231 31.6086 67.4968 30.2966 67.0326 28.7828C66.5675 27.2702 66.3359 25.6289 66.3359 23.86Z" fill="#0C0B10"/>
<path d="M97.2673 5.20205C97.2673 6.4314 96.8696 7.39741 96.0758 8.10197C95.2815 8.80654 94.3454 9.15771 93.2663 9.15771C92.1876 9.15771 91.2506 8.80654 90.4567 8.10197C89.6622 7.39741 89.2656 6.4314 89.2656 5.20205C89.2656 3.97254 89.6622 3.00654 90.4567 2.30197C91.2506 1.5974 92.1876 1.24511 93.2663 1.24511C94.3454 1.24511 95.2815 1.5974 96.0758 2.30197C96.8696 3.00654 97.2673 3.97254 97.2673 5.20205Z" fill="#0158A8"/>
<path d="M96.6291 35.6802H89.9297V12.0309H96.6291V35.6802Z" fill="#0C0B10"/>
<path d="M102.703 6.13888L109.401 5.05998V12.0286H117.447V17.6038H109.401V25.9212C109.401 27.3303 109.648 28.454 110.143 29.2936C110.637 30.133 111.633 30.5523 113.132 30.5523C113.851 30.5523 114.593 30.4853 115.358 30.3504C116.122 30.2157 116.818 30.0286 117.447 29.788L118.392 35.0037C117.582 35.3339 116.683 35.6184 115.695 35.8577C114.705 36.0971 113.492 36.2173 112.053 36.2173C110.225 36.2173 108.712 35.9706 107.513 35.475C106.314 34.9805 105.355 34.2917 104.636 33.4073C103.917 32.5239 103.415 31.4513 103.13 30.1926C102.845 28.934 102.703 27.5404 102.703 26.0111V6.13888Z" fill="#0C0B10"/>
<path d="M144.374 12.0335C143.022 16.5894 141.61 20.8609 140.138 24.8471C138.666 28.8342 137.058 32.7001 135.315 36.447C134.685 37.7955 134.055 38.9423 133.425 39.8863C132.794 40.8302 132.103 41.6101 131.353 42.2249C130.603 42.8385 129.755 43.2882 128.81 43.5735C127.864 43.8578 126.762 44 125.502 44C124.451 44 123.482 43.9028 122.597 43.7082C121.712 43.5128 120.984 43.2954 120.414 43.056L121.583 37.7056C122.273 37.946 122.887 38.1101 123.426 38.2C123.966 38.2901 124.536 38.3349 125.136 38.3349C126.335 38.3349 127.257 38.0129 127.902 37.3689C128.547 36.724 129.094 35.8321 129.544 34.6938C128.014 31.6965 126.485 28.3314 124.956 24.6004C123.426 20.8683 121.988 16.6793 120.639 12.0335H127.742C128.042 13.2022 128.396 14.4693 128.803 15.8325C129.209 17.1968 129.638 18.5747 130.09 19.9692C130.541 21.3628 131 22.7196 131.466 24.0379C131.932 25.3572 132.377 26.5553 132.798 27.6351C133.189 26.5553 133.596 25.3572 134.017 24.0379C134.439 22.7196 134.852 21.3628 135.258 19.9692C135.664 18.5747 136.056 17.1968 136.432 15.8325C136.808 14.4693 137.147 13.2022 137.448 12.0335H144.374Z" fill="#0C0B10"/>
</g>
<defs>
<clipPath id="clip0_3080_155528">
<rect width="144" height="44" fill="white" transform="matrix(1 0 0 -1 0 44)"/>
</clipPath>
</defs>
</svg>
