<svg width="834" height="232" viewBox="0 0 834 232" fill="none" xmlns="http://www.w3.org/2000/svg">
<path opacity="0.6" d="M300.301 0.0012207L322.037 47.4618L362.332 38.9929L368.016 0.0012207H377.045L362.831 97.6138L387.416 95.306L432.555 0.128174H451.447L427.707 50.2815L481.879 60.0294L511.473 1.92664L505.62 0.00244141H522.009L507.295 28.8615L566.149 46.1777C574.933 30.338 584.699 14.9231 595.406 0.0012207H616.139C589.389 35.4023 568.991 75.4215 555.117 108.003L681.855 115.442L656.768 0.0012207H674.826L682.85 36.8135L755.579 27.3208L756.248 19.8806L741.036 0.0012207H751.403L757.422 7.82495L758.091 0.0012207H766.953L764.445 26.1649L817.61 19.243L815.774 0.128174H833.663L834 3.68445V222.855L818.115 264.492L834 265.527V279.167L813.1 277.827L792.367 332.218L834 347.624V372.71L822.963 368.645L784.509 472.539L820.79 488.193L834 457.058V479.071L829.15 490.502L834 491.124V498.003L826.309 497.049L800.392 558.104L834 568.603V576.028L797.717 564.642L751.235 673.925L834 667.878V681.689L709.268 690.727L798.553 769.357C804.654 768.912 821.73 767.594 834 766.753V773.444L801.395 775.898L804.733 814.255L834 811.388V834.354L808.084 836.825L814.098 865.947C821.386 865.07 828.221 864.24 834 863.554V870.582L815.44 872.741L821.626 902.114L834 900.875V907.757L823.132 908.918L831.492 949.19L834 949.002V962.639L764.109 967.788L775.146 1028.07C793.757 1025.12 813.561 1022.87 834 1021.18V1034.87C830.577 1035.15 827.177 1035.45 823.8 1035.77L828.984 1090.03L834 1090.5V1104.34L830.488 1104.01L833.663 1137.87H815.774L806.076 1037.69C795.709 1038.98 785.678 1040.26 775.98 1041.93L766.953 1137.87H758.089L766.953 1043.6C740.534 1048.47 717.462 1055.01 699.739 1063.86C698.568 1064.5 697.23 1065.27 695.893 1065.91L751.235 1137.87H740.868L717.293 1107.22L672.652 1127.61L674.825 1137.87H656.768L648.737 1100.8C636.721 1112.36 625.819 1124.76 616.139 1137.87H595.408C597.916 1134.28 600.591 1130.69 603.434 1127.1L536.385 1109.27L521.84 1137.87H505.45L458.634 1122.86L451.448 1137.87H432.556L434.061 1134.54L379.386 1121.58L377.045 1137.87H368.016L370.858 1119.53L328.056 1109.27C322.202 1110.55 307.489 1113.76 290.936 1117.22L300.47 1138H291.104C287.592 1130.43 284.583 1123.64 282.409 1119.02C268.698 1121.97 254.821 1124.92 244.455 1127.1L251.313 1137.87H218.214L215.203 1133.38L194.966 1137.87H131.263C162.029 1131.08 190.452 1124.66 207.339 1120.94L178.915 1076.43L112.539 1085.03L121.065 1137.87H103.175L94.8147 1087.21L26.9318 1096.06L16.8989 1137.87H0.0116577V1083.4L4.52765 1065.02L0.0116577 1064V1056.97L5.53003 1058.22L0.0116577 1049.07V1016.57L11.3821 1035.38L36.293 931.237C28.6227 927.327 22.0086 922.034 16.8975 915.716L0.0102539 923.51V915.431L12.7181 909.561C9.25623 903.36 7.42865 896.569 7.36804 889.679C7.36804 888.653 7.53485 887.755 7.53485 886.73L0.0116577 885.648V862.465L16.2302 864.795C25.5958 852.348 41.9855 843.246 61.2069 840.68L86.1194 781.029L0.0116577 767.78V760.784L39.6382 766.918C40.6407 762.045 42.6484 752.681 44.8201 742.548L0.0116577 738.004V731.112L46.1591 735.877C48.1639 726.258 50.1716 716.766 51.5092 710.603L0.0102539 703.141V689.278L54.8515 697.141L75.2509 625.566L0.0116577 679.498V670.035L76.5899 615.304L45.9923 586.574L0.0131226 607.515V591.735L34.6233 575.934L8.86798 551.947L0.00579834 555.968V547.949L3.34961 546.431L0.00579834 543.293V532.576L42.3163 572.337L131.597 531.675L0.0116577 513.527V490.367L34.6219 495.117L51.3409 418.797L0.0102539 409.425V402.411L52.8525 412.128L62.7186 366.85C40.6481 363.655 19.2696 360.46 0.0174561 357.633V343.763L41.8187 349.917L55.1939 278.473L14.2195 272.054L0.00579834 317.485V287.881L5.35742 270.772L0.00579834 269.943V255.972L57.5164 264.872L65.3746 222.927L0 213.033V206.196L66.7122 216.257L76.2431 164.945L0.00140381 154.924V141.031L78.7527 151.349L88.1183 100.94L0.00292969 91.699V78.0265L38.292 82.0831L47.9898 32.9562L7.02557 42.0614L0.00140381 70.97V0.128174H17.2327L10.7075 27.0668C32.1108 22.1935 67.8901 14.2389 104.173 6.15857L103.171 0.130737H121.065L121.398 2.3114C124.744 1.54175 127.919 0.900391 131.261 0.130737H194.966L121.733 16.2926L115.213 51.6963L233.255 23.6058L218.214 0.0012207H251.313L286.424 54.8994L313.51 49.2552C309.665 40.7902 299.299 18.0873 290.939 0L300.301 0.0012207ZM103.175 20.5245L57.5295 30.6573L47.3298 82.731L90.8021 87.3477L103.175 20.5245ZM822.963 74.1414L818.28 26.0405L684.356 43.6135L693.385 84.9167L822.963 74.1414ZM252.816 54.1323L237.268 29.8889L192.625 40.6643L200.985 65.5479L252.816 54.1323ZM562.635 52.5917L503.954 35.4049L490.578 61.5687L552.273 72.7277C555.446 66.0597 558.958 59.3905 562.635 52.5917ZM192.458 67.3438L184.098 42.5885L113.875 59.2622L109.026 85.6801L192.458 67.3438ZM353.805 98.5117L361.331 46.306L290.44 61.1851L316.688 102.232L353.805 98.5117ZM472.348 72.2209L421.521 63.1132L405.471 97.2328L437.573 107.363L472.348 72.2209ZM284.083 103.132L260.676 66.5754L106.184 100.438L101.501 125.323L258 142.632L284.083 103.132ZM546.085 85.5594L481.712 74.0168L444.259 111.855L480.375 159.058L517.158 159.828C525.167 134.614 534.825 109.817 546.085 85.5569V85.5594ZM827.813 125.191L824.301 87.8658L696.227 98.5117L703.75 133.273L827.813 125.191ZM383.901 102.359L320.699 108.645L341.772 141.481C348.449 139.773 355.376 138.909 362.338 138.916C363.733 138.891 365.128 138.933 366.517 139.043L383.901 102.359ZM431.886 113.006L402.292 103.643L384.066 142C388.919 143.263 393.578 145.029 397.945 147.259L431.886 113.006ZM316.52 153.667L289.098 110.825L247.627 173.422L298.454 180.092C300.965 169.799 307.314 160.512 316.52 153.668V153.667ZM683.353 122.499L552.269 114.803C544.411 133.915 538.727 149.821 535.382 160.21L692.215 163.672L683.353 122.499ZM438.239 117.625L404.798 151.359C407.635 153.192 410.267 155.254 412.657 157.516L469.839 158.799L438.239 117.625ZM828.313 131.862L705.089 139.943L710.273 163.929L831.659 166.623L828.313 131.862ZM165.699 139.301L100.326 132.118L96.3132 153.668L159.178 161.748L165.699 139.301ZM253.814 149.05L174.563 140.327L167.873 163.031L238.6 172.136L253.814 149.05ZM397.605 188.812C397.605 173.805 381.72 161.747 362.325 161.747C342.761 161.747 327.044 173.933 327.044 188.812C327.044 203.819 342.929 215.878 362.325 215.878C381.72 215.878 397.443 203.693 397.611 188.814L397.605 188.812ZM193.955 180.218L93.805 167.136L88.7885 193.681L187.603 207.92L193.955 180.218ZM470.008 181.497L426.202 180.599C426.901 183.291 427.182 186.051 427.039 188.807C427.016 191.474 426.736 194.134 426.202 196.759L463.319 210.484L470.008 181.497ZM545.248 212.665L550.096 183.291L479.204 181.753L471.848 213.563L528.025 234.343L545.248 212.665ZM304.983 211.895C301.089 206.396 298.634 200.222 297.793 193.809L211.52 182.522L191.618 269.102L304.983 211.895ZM691.88 186.366L558.958 183.416L554.442 211.122L680.511 232.03L691.88 186.366ZM828.313 189.326L709.938 186.76L705.591 204.205L819.119 213.312L828.313 189.326ZM186.103 214.727L87.4568 200.361L83.778 220.5L176.238 257.184L186.103 214.727ZM756.418 215.235L703.917 211.002L683.687 292.069L727.32 308.231L756.418 215.235ZM816.44 219.98L765.28 215.878L735.515 311.182L776.149 326.189L816.44 219.98ZM599.584 225.623L551.767 217.67L536.217 237.424L580.023 253.586L599.584 225.623ZM318.358 225.369C315.187 223.095 312.275 220.56 309.662 217.802L189.447 278.344L187.941 285.014L286.922 300.406L318.358 225.369ZM499.435 248.97L414.999 217.802C409.2 223.9 401.958 228.845 393.764 232.3L407.642 274.758L499.435 248.97ZM678.845 238.837L608.622 227.165L588.056 256.666L667.142 285.911L678.845 238.837ZM174.574 264.239L82.4462 227.682L75.0899 267.574L170.393 282.324L174.574 264.239ZM396.44 333.886L365.007 238.582H362.331C356.352 238.601 350.395 237.955 344.606 236.658L309.662 320.674L325.547 350.816L396.44 333.886ZM558.456 270.911L510.471 253.08L449.28 270.263L460.817 302.074L558.456 270.911ZM470.008 352.618L441.085 272.83L409.82 281.552L436.402 362.484L470.008 352.618ZM642.394 301.952L569.161 274.886L534.887 285.784L563.98 324.902L642.394 301.952ZM167.383 295.795L72.5803 281.044L59.2036 352.489L151.163 366.086L167.383 295.795ZM555.616 327.477L526.692 288.479L463.328 308.744L478.376 350.175L555.616 327.477ZM281.411 313.496L184.768 298.487L168.55 368.651L253.151 381.097L281.411 313.496ZM705.759 325.423L664.458 310.157L578.185 335.431L678.338 388.14L705.759 325.423ZM351.465 418.291L305.319 330.811L252.652 456.898L351.465 418.291ZM806.573 362.621L721.803 331.324L694.049 395.073L783.004 426.37L806.573 362.621ZM613.799 420.337L624.336 368.009L568.158 338.378L534.05 348.384L507.124 453.692C531.032 460.106 558.788 467.546 583.032 474.087L613.799 420.337ZM431.552 440.988L398.447 340.427L328.726 357.1L379.051 452.407L431.552 440.988ZM524.184 351.329L440.584 375.828L462.32 441.757C471.349 444.195 484.055 447.658 498.603 451.506L524.184 351.329ZM139.292 378.265C117.222 375.059 94.1488 371.597 71.5778 368.261L43.4811 496.401L57.8602 498.452L139.292 378.265ZM675.325 394.812L632.355 372.236L623.159 418.286L663.621 422.004L675.325 394.812ZM247.632 394.177C227.73 391.225 190.617 385.839 148.316 379.554L142.128 388.661L225.728 446.765L247.632 394.177ZM177.574 422.523L138.114 394.946L67.2229 499.613L112.366 505.898L177.574 422.523ZM780.662 433.036L691.212 401.611L681.012 425.084L772.638 454.458L780.662 433.036ZM371.357 455.997L354.803 424.571L250.642 465.234L344.107 483.576L371.357 455.997ZM660.444 428.418L620.651 424.827L591.383 476.265C609.942 481.268 625.66 485.5 634.687 487.938L660.444 428.418ZM222.716 453.947L184.263 427.132L121.73 507.171L196.304 517.435L222.716 453.947ZM723.811 453.566L675.322 438.044L651.747 492.173L699.901 503.59L723.811 453.566ZM433.888 447.665L379.215 459.595L353.632 485.505L452.615 504.874L433.888 447.665ZM551.43 472.807L465.154 449.589L485.557 511.537L534.713 522.824L551.43 472.807ZM767.621 467.669L731.839 456.254L683.694 556.815L730.671 567.591L767.621 467.669ZM632.023 494.478L559.792 475.109L543.238 524.878L611.958 540.526L632.023 494.478ZM275.221 484.216L243.954 478.062L228.069 515.901L261.007 524.366L275.221 484.216ZM741.537 674.695L817.947 494.862L782.001 479.343L708.768 677.003L741.537 674.695ZM330.893 494.99L283.742 485.755L269.363 526.416L309.324 536.676L330.893 494.99ZM386.904 579.262L419.676 564.767L398.944 508.586L348.282 498.709L303.472 584.779L386.904 579.262ZM696.553 510.126C686.521 507.688 661.941 501.788 648.733 498.709L628.831 544.372L675.144 554.891L696.553 510.126ZM465.652 544.372L457.625 519.874L409.137 510.382L427.707 561.177L465.652 544.372ZM306.144 543.091L225.387 522.439L199.482 584.394L273.05 606.713L306.144 543.091ZM568.82 544.885L490.4 527.057L509.961 586.318L568.82 544.885ZM187.107 539.242L158.348 535.266L102.838 560.541C100.162 570.288 94.3098 590.555 87.9573 613.002L151.492 624.545L187.107 539.242ZM657.269 645.193L680.009 570.283L578.854 547.196L512.31 593.757L530.204 648.015L657.269 645.193ZM484.547 601.966L467.828 551.299L394.929 583.495C403.624 592.474 429.037 618.383 436.895 626.464L484.547 601.966ZM92.2992 565.537L53.6764 583.111L80.2688 607.992L92.2992 565.537ZM725.822 580.673L688.541 572.208L673.995 620.18L708.103 628.518L725.822 580.673ZM429.548 630.441L386.242 586.189L299.969 591.833L298.298 595.039L386.574 652.632L429.548 630.441ZM269.704 613.125L196.638 590.935L179.919 631.082L250.141 650.708L269.704 613.125ZM329.061 624.028L294.784 601.709L266.194 656.864L287.763 668.922L329.061 624.028ZM493.081 627.62L486.897 609.02L442.422 631.98L457.969 646.984L493.081 627.62ZM148.819 630.955L86.1194 619.668C77.0904 650.966 67.5609 684.443 63.7151 698.297L117.554 705.994L148.819 630.955ZM689.712 678.414L705.757 635.187L671.983 626.851L655.593 680.851L689.712 678.414ZM407.313 674.951L335.92 628.518L294.956 673.027L352.807 705.093L407.313 674.951ZM450.783 651.093C445.766 646.219 438.745 639.421 435.066 635.83L393.768 657.25L414.841 670.975L450.783 651.093ZM246.969 656.994L177.246 637.625L166.546 663.408C180.595 668.794 205.002 678.543 230.081 689.571L246.969 656.994ZM526.019 728.568L497.596 641.987L418.842 685.468L440.579 741.137L526.019 728.568ZM646.235 681.492L655.264 651.991L532.546 654.813L543.748 688.932L646.235 681.492ZM345.111 709.326L262.682 663.533L245.627 696.498C266.527 705.991 286.591 716.124 300.301 725.232C302.639 726.832 304.872 728.545 306.989 730.361L345.111 709.326ZM293.112 738.827C291.735 737.686 290.284 736.616 288.764 735.621C257.831 715.226 190.619 688.033 161.023 676.489L141.294 723.697L221.551 785.908L293.112 738.827ZM702.749 782.311L688.87 692.134L647.406 695.213L663.122 786.797L702.749 782.311ZM419.512 734.339L403.63 693.806L363.503 715.868L380.062 748.834L419.512 734.339ZM638.543 695.856L548.088 702.397L552.436 715.733L646.238 740.874L638.543 695.856ZM795.878 815.017L792.366 774.227L707.929 699.83L726.821 821.558L795.878 815.017ZM112.036 719.2L60.3713 711.76L48.3337 768.199L88.9612 774.483L112.036 719.2ZM400.62 808.863L355.978 720.102L317.688 741.266C340.93 768.331 359.822 813.225 370.022 840.674L400.62 808.863ZM654.261 787.827L647.572 748.454L555.111 723.697L579.022 796.426L654.261 787.827ZM561.801 837.082L528.36 735.109L443.255 747.81L481.377 844.653L561.801 837.082ZM208.008 794.882L135.11 738.315L103.675 813.866L150.992 832.464L208.008 794.882ZM434.896 773.332L422.188 741.01L383.232 755.375L406.972 802.449L434.896 773.332ZM331.901 795.138C323.706 778.335 314.177 761.789 303.805 749.602L275.882 768.073L300.628 804.373L331.901 795.138ZM292.275 807.066L268.868 772.69L234.425 795.522L264.687 815.277L292.275 807.066ZM463.489 846.185L438.075 781.41L373.038 849.139C373.707 851.064 374.376 852.859 374.878 854.527L463.489 846.185ZM709.101 823.23L703.751 789.107L581.195 802.958L591.562 834.257L709.101 823.23ZM241.614 867.098L258.837 820.408L227.57 800.013L128.755 865.042C131.579 868.77 133.775 872.83 135.275 877.099L241.614 867.098ZM356.981 856.195C352.633 843.622 344.775 822.845 334.91 801.681L267.362 821.69L250.977 866.201L356.981 856.195ZM143.801 837.211L100.999 820.408L91.8016 842.214C101.406 844.534 110.309 848.649 117.886 854.271L143.801 837.211ZM805.245 866.97L799.226 837.723L731.844 844.008L741.209 874.535C754.412 872.999 781.33 869.79 805.242 866.97H805.245ZM714.285 845.677L593.065 857.093L597.748 870.683L723.314 875.173L714.285 845.677ZM564.643 859.787L490.4 866.709L535.209 921.864L564.643 859.787ZM107.688 889.802C107.688 874.793 91.8031 862.736 72.4105 862.736C53.0179 862.736 37.1301 874.793 37.1301 889.802C37.1301 904.811 53.015 916.865 72.4105 916.865C91.9714 916.865 107.688 904.685 107.688 889.802ZM529.363 927.512L480.709 867.61L452.116 870.305L451.949 936.747L529.363 927.512ZM578.854 869.662L533.716 964.582L618.653 987.542L578.854 869.662ZM442.921 937.772L443.09 871.073L348.287 879.924L358.318 947.906L442.921 937.772ZM812.765 903.013L806.746 873.767L743.211 881.207L751.738 909.298L812.765 903.013ZM687.37 959.708L668.98 880.051L599.926 877.614L629.02 963.938L687.37 959.708ZM747.559 955.346L725.315 882.106L678.164 880.439L696.393 959.066L747.559 955.346ZM343.771 909.17L339.59 880.822L286.26 885.824L291.945 914.044L343.771 909.17ZM282.574 956.887L268.526 887.493L207.998 893.137L222.211 964.069L282.574 956.887ZM213.357 965.095L198.977 894.034L135.777 899.935C132.77 910.435 125.83 919.772 116.048 926.48L145.809 973.171L213.357 965.095ZM822.63 949.83L814.271 909.811L753.911 915.968L765.448 954.063L822.63 949.83ZM349.624 948.804L344.776 915.968L293.28 920.713L300.133 954.706L349.624 948.804ZM174.734 1070.02L89.9651 937.645C89.5061 937.668 89.0541 937.753 88.6261 937.899L111.367 1078.23L174.734 1070.02ZM93.8093 1080.53L71.0715 939.441C68.8984 939.314 66.8922 939.187 64.7191 939.06L28.7698 1088.87L93.8093 1080.53ZM525.852 941.622L449.776 950.729L418.009 1037.95L472.517 1053.73L525.852 941.622ZM440.078 951.884L393.764 957.4L372.195 1024.61L409.649 1035.52L440.078 951.884ZM384.4 958.425L314.846 966.763L322.035 1009.86L364.003 1022.04L384.4 958.425ZM760.925 998.572L755.408 968.429L633.686 977.408L646.895 1016.02L760.925 998.572ZM301.639 996.131L297.126 968.939L154.171 985.998L172.556 1014.86L301.639 996.131ZM574.341 982.795L530.7 970.995L512.142 1010.11L558.958 1025L574.341 982.795ZM621.324 995.623L582.7 985.104L567.151 1027.69L640.048 1051.04L621.324 995.623ZM318.359 1097.08L302.81 1002.93L244.289 1011.4C251.139 1026.66 276.558 1084.9 285.09 1104.14L318.359 1097.08ZM690.041 1052.32C710.273 1042.31 736.522 1034.87 766.451 1029.36L762.103 1005.24L649.077 1022.56L664.296 1067.71C672.384 1061.98 680.994 1056.84 690.041 1052.32ZM276.393 1105.93L235.429 1012.55L176.575 1021.15L236.266 1114.53L276.393 1105.93ZM556.45 1031.67L509.132 1016.53L479.204 1079.64L533.716 1094.13L556.45 1031.67ZM406.807 1041.93L323.207 1017.56L330.062 1059.11L387.078 1075.02L406.807 1041.93ZM649.745 1078.87L643.058 1059.11L564.809 1034.23L542.071 1096.32L613.13 1115.17C624.074 1102.15 636.327 1090 649.745 1078.87ZM469.506 1060.4L415 1044.49L393.6 1080.66L382.9 1108.11L440.249 1121.71L469.506 1060.4ZM383.899 1081.43L331.233 1066.81L336.249 1096.96L374.37 1106.06L383.899 1081.43ZM712.78 1101.32L688.541 1069.89C679.809 1075.17 671.538 1081 663.795 1087.33L670.98 1120.43L712.78 1101.32ZM528.025 1107.09L473.016 1092.47L461.647 1116.45L514.65 1133.38L528.025 1107.09Z" fill="#EEEEEE"/>
</svg>
