<svg width="140" height="60" viewBox="0 0 140 60" fill="none" xmlns="http://www.w3.org/2000/svg">
<g clip-path="url(#clip0_3301_79385)">
<path fill-rule="evenodd" clip-rule="evenodd" d="M85.1939 20.3967V22.8451H90.0906V36.8672H86.3073V39.3156H96.9906V36.8672H93.2072V23.7356L102.333 39.3156H106.895L117.245 23.7356V36.8672H111.902V39.3156H133.827V36.8672H127.039V22.8451H133.827V20.3967H114.907L109.01 29.2998L103.779 20.3967H85.1939ZM21.7604 31.0792H28.104L33.8905 39.3156H45.576V36.8672H43.3506L38.3427 29.8561C42.0149 29.4109 44.5752 27.4078 44.5752 24.9594C44.5752 22.511 41.3475 20.3967 37.6753 20.3967H6.17969V22.8451H11.9669V36.8672H6.17969V39.3156H27.1017V36.8672H21.7604V31.0792V31.0792ZM21.7604 22.8451H28.2151C31.9992 22.8451 32.4444 24.2919 32.4444 25.8498C32.4444 27.4078 30.6635 28.6323 28.2151 28.6323H21.7604V22.8451V22.8451ZM57.7032 32.8616H67.6107L69.8361 36.8679H63.8267V39.3163H84.5257V36.8679H82.0787L71.7289 20.3975H53.922V22.8458H60.4878L51.4184 36.8672H48.1355V39.3156H59.5981V36.8672H55.3688L57.7032 32.8616V32.8616ZM59.15 30.4132L62.9362 23.9585L66.3862 30.4132H59.15Z" fill="#0C0B10"/>
</g>
<defs>
<clipPath id="clip0_3301_79385">
<rect width="140" height="19.2157" fill="white" transform="translate(0 20.3921)"/>
</clipPath>
</defs>
</svg>
