<svg width="20" height="21" viewBox="0 0 20 21" fill="none" xmlns="http://www.w3.org/2000/svg">
<path d="M1.84381 12.2168C1.60415 11.0849 1.60415 9.91536 1.84381 8.78346C2.76881 8.89179 3.57714 8.58596 3.84047 7.94929C4.10464 7.31179 3.75047 6.52429 3.01881 5.94679C3.64967 4.97707 4.47658 4.15016 5.44631 3.51929C6.02297 4.25013 6.81131 4.60513 7.44881 4.34096C8.08631 4.07679 8.39214 3.26929 8.28297 2.34429C9.41487 2.10464 10.5844 2.10464 11.7163 2.34429C11.608 3.26929 11.9138 4.07763 12.5505 4.34096C13.188 4.60513 13.9755 4.25096 14.553 3.51929C15.5227 4.15016 16.3496 4.97707 16.9805 5.94679C16.2496 6.52346 15.8946 7.31179 16.1588 7.94929C16.423 8.58679 17.2305 8.89263 18.1555 8.78346C18.3951 9.91536 18.3951 11.0849 18.1555 12.2168C17.2305 12.1085 16.4221 12.4143 16.1588 13.051C15.8946 13.6885 16.2488 14.476 16.9805 15.0535C16.3496 16.0232 15.5227 16.8501 14.553 17.481C13.9763 16.7501 13.188 16.3951 12.5505 16.6593C11.913 16.9235 11.6071 17.731 11.7163 18.656C10.5844 18.8956 9.41487 18.8956 8.28297 18.656C8.39131 17.731 8.08547 16.9226 7.44881 16.6593C6.81131 16.3951 6.02381 16.7493 5.44631 17.481C4.47658 16.8501 3.64967 16.0232 3.01881 15.0535C3.74964 14.4768 4.10464 13.6885 3.84047 13.051C3.57631 12.4135 2.76881 12.1076 1.84381 12.2168ZM3.33297 10.6751C4.24964 10.9293 5.00547 11.5101 5.38047 12.4135C5.75464 13.3176 5.63047 14.2635 5.16214 15.0901C5.24214 15.1751 5.32464 15.2576 5.40964 15.3376C6.23714 14.8693 7.18214 14.746 8.08631 15.1193C8.98964 15.4943 9.57047 16.2501 9.82464 17.1668C9.94131 17.1701 10.058 17.1701 10.1746 17.1668C10.4288 16.2501 11.0096 15.4943 11.913 15.1193C12.8171 14.7451 13.763 14.8693 14.5896 15.3376C14.6746 15.2576 14.7571 15.1751 14.8371 15.0901C14.3688 14.2626 14.2455 13.3176 14.6188 12.4135C14.9938 11.5101 15.7496 10.9293 16.6663 10.6751C16.6696 10.5585 16.6696 10.4418 16.6663 10.3251C15.7496 10.071 14.9938 9.49013 14.6188 8.58679C14.2446 7.68263 14.3688 6.73679 14.8371 5.91013C14.7568 5.82546 14.6743 5.74293 14.5896 5.66263C13.7621 6.13096 12.8171 6.25429 11.913 5.88096C11.0096 5.50596 10.4288 4.75013 10.1746 3.83346C10.058 3.83037 9.94129 3.83037 9.82464 3.83346C9.57047 4.75013 8.98964 5.50596 8.08631 5.88096C7.18214 6.25513 6.23631 6.13096 5.40964 5.66263C5.32464 5.74263 5.24214 5.82513 5.16214 5.91013C5.63047 6.73763 5.75381 7.68263 5.38047 8.58679C5.00547 9.49013 4.24964 10.071 3.33297 10.3251C3.32964 10.4418 3.32964 10.5585 3.33297 10.6751ZM9.99964 13.0001C9.3366 13.0001 8.70071 12.7367 8.23187 12.2679C7.76303 11.7991 7.49964 11.1632 7.49964 10.5001C7.49964 9.83709 7.76303 9.2012 8.23187 8.73236C8.70071 8.26352 9.3366 8.00013 9.99964 8.00013C10.6627 8.00013 11.2986 8.26352 11.7674 8.73236C12.2362 9.2012 12.4996 9.83709 12.4996 10.5001C12.4996 11.1632 12.2362 11.7991 11.7674 12.2679C11.2986 12.7367 10.6627 13.0001 9.99964 13.0001ZM9.99964 11.3335C10.2207 11.3335 10.4326 11.2457 10.5889 11.0894C10.7452 10.9331 10.833 10.7211 10.833 10.5001C10.833 10.2791 10.7452 10.0672 10.5889 9.91087C10.4326 9.75459 10.2207 9.66679 9.99964 9.66679C9.77863 9.66679 9.56666 9.75459 9.41038 9.91087C9.2541 10.0672 9.16631 10.2791 9.16631 10.5001C9.16631 10.7211 9.2541 10.9331 9.41038 11.0894C9.56666 11.2457 9.77863 11.3335 9.99964 11.3335Z" fill="#9CA3AF"/>
</svg>
