<svg width="140" height="60" viewBox="0 0 140 60" fill="none" xmlns="http://www.w3.org/2000/svg">
<path d="M52.9926 20.0109V24.8915H64.4076C64.4307 24.8917 64.4529 24.9006 64.4692 24.9162C64.4856 24.9318 64.4949 24.9529 64.4951 24.975C64.4951 24.9979 64.4853 25.0197 64.467 25.0361L52.5909 35.6144V39.7275H76.5844V34.826H64.639C64.6213 34.826 64.6041 34.8208 64.5895 34.8114C64.575 34.8019 64.5637 34.7885 64.5572 34.7729C64.5509 34.7571 64.5497 34.74 64.5536 34.7236C64.5576 34.7072 64.5667 34.6924 64.5796 34.6809C64.5796 34.6809 76.5698 24.1807 76.6261 24.1305V20.01C76.4536 20.0109 53.1656 20.0109 52.9926 20.0109ZM43.3789 20.0109V32.5361C43.3789 34.3663 41.6949 35.4588 38.8739 35.4588C36.0124 35.4588 34.3706 34.3757 34.3706 32.4869V20.0114H27.0035V32.8875C27.0035 35.6258 27.7351 37.3426 29.3759 38.4525C31.1714 39.6688 34.1892 40.235 38.8734 40.235C43.5581 40.235 46.5765 39.6688 48.372 38.4525C50.0133 37.3426 50.7448 35.6253 50.7448 32.8875V20.0114L43.3789 20.0109ZM95.1486 20.0109V32.4854C95.1486 34.3474 93.4662 35.4583 90.6463 35.4583C87.7816 35.4583 86.1393 34.3752 86.1393 32.4864V20.0109H78.7743V32.887C78.7743 35.6253 79.5064 37.3421 81.1477 38.452C82.9437 39.6683 85.9616 40.2345 90.6463 40.2345C95.3284 40.2345 98.3468 39.6683 100.144 38.452C101.785 37.3416 102.518 35.6248 102.518 32.887V20.0109H95.1486ZM132.305 20.0109V39.7285H140V20.0109H132.305ZM120.854 20.0109C120.804 20.0507 112.511 26.8543 112.511 26.8543C112.499 26.8648 112.483 26.8716 112.466 26.8738C112.45 26.876 112.433 26.8736 112.418 26.8668C112.402 26.8603 112.389 26.8497 112.38 26.8362C112.371 26.8226 112.366 26.8068 112.366 26.7907V20.0109H104.672V39.7285H112.366V32.7608C112.366 32.728 112.386 32.6967 112.42 32.6843C112.435 32.678 112.453 32.6761 112.469 32.6789C112.486 32.6818 112.502 32.6891 112.514 32.7002C112.514 32.7002 120.211 39.6822 120.261 39.7285H130.571L119.235 29.6731C119.226 29.6654 119.219 29.656 119.214 29.6454C119.209 29.6349 119.207 29.6235 119.207 29.612V29.61C119.207 29.5866 119.218 29.5638 119.238 29.5479L130.936 20.0105L120.854 20.0109ZM0.440281 25.9502C0.440281 28.094 1.30938 29.5484 3.17523 30.5256C4.89155 31.4247 7.4707 31.9849 11.7995 32.3994L12.6176 32.4665C14.4938 32.6092 16.6202 32.7702 16.6202 34.237C16.6202 35.2416 15.4776 35.7963 13.4028 35.7963C12.3893 35.7963 10.9018 35.5517 9.65544 33.4691H0C0.0218838 35.7525 0.908698 37.3197 2.79331 38.3899C4.91968 39.5982 8.38461 40.1847 13.3871 40.1847C24.5437 40.1847 25.4107 35.2277 25.4107 33.7087C25.4107 30.1856 22.1198 28.0701 15.3489 27.243L14.2854 27.1148C11.1956 26.7485 8.75508 26.4592 8.75508 25.4248C8.75508 25.0247 8.89367 24.6897 9.1667 24.4297C9.88053 23.7493 11.3525 23.7513 11.9808 23.7518H12.0397C12.6181 23.7518 14.5986 23.9168 15.9517 25.9974H24.7021C24.6401 21.8336 20.0466 19.4458 12.0689 19.4458C1.57355 19.4453 0.440281 23.9938 0.440281 25.9502Z" fill="#0C0B10"/>
</svg>
