<svg width="32" height="32" viewBox="0 0 32 32" fill="none" xmlns="http://www.w3.org/2000/svg">
<path d="M15.9974 12.0001C14.9365 12.0001 13.9191 12.4215 13.169 13.1717C12.4188 13.9218 11.9974 14.9392 11.9974 16.0001C11.9974 17.0609 12.4188 18.0784 13.169 18.8285C13.9191 19.5787 14.9365 20.0001 15.9974 20.0001C17.0583 20.0001 18.0757 19.5787 18.8258 18.8285C19.576 18.0784 19.9974 17.0609 19.9974 16.0001C19.9974 14.9392 19.576 13.9218 18.8258 13.1717C18.0757 12.4215 17.0583 12.0001 15.9974 12.0001ZM15.9974 9.33342C17.7655 9.33342 19.4612 10.0358 20.7114 11.286C21.9617 12.5363 22.6641 14.232 22.6641 16.0001C22.6641 17.7682 21.9617 19.4639 20.7114 20.7141C19.4612 21.9644 17.7655 22.6667 15.9974 22.6667C14.2293 22.6667 12.5336 21.9644 11.2834 20.7141C10.0331 19.4639 9.33073 17.7682 9.33073 16.0001C9.33073 14.232 10.0331 12.5363 11.2834 11.286C12.5336 10.0358 14.2293 9.33342 15.9974 9.33342ZM24.6641 9.00008C24.6641 9.44211 24.4885 9.86603 24.1759 10.1786C23.8633 10.4912 23.4394 10.6667 22.9974 10.6667C22.5554 10.6667 22.1314 10.4912 21.8189 10.1786C21.5063 9.86603 21.3307 9.44211 21.3307 9.00008C21.3307 8.55805 21.5063 8.13413 21.8189 7.82157C22.1314 7.50901 22.5554 7.33342 22.9974 7.33342C23.4394 7.33342 23.8633 7.50901 24.1759 7.82157C24.4885 8.13413 24.6641 8.55805 24.6641 9.00008ZM15.9974 5.33341C12.6987 5.33341 12.1601 5.34275 10.6254 5.41075C9.58006 5.46008 8.87873 5.60008 8.22806 5.85341C7.6494 6.07741 7.23206 6.34541 6.78806 6.79075C6.37074 7.19395 6.04987 7.68619 5.8494 8.23075C5.59606 8.88408 5.45606 9.58408 5.40806 10.6281C5.33873 12.1001 5.33073 12.6147 5.33073 16.0001C5.33073 19.2987 5.34006 19.8374 5.40806 21.3721C5.4574 22.4161 5.5974 23.1187 5.8494 23.7681C6.07606 24.3481 6.34273 24.7654 6.7854 25.2081C7.23473 25.6561 7.65206 25.9241 8.2254 26.1454C8.88406 26.4001 9.5854 26.5414 10.6254 26.5894C12.0974 26.6587 12.6121 26.6667 15.9974 26.6667C19.2961 26.6667 19.8347 26.6574 21.3694 26.5894C22.4121 26.5401 23.1147 26.4001 23.7654 26.1481C24.3427 25.9227 24.7627 25.6547 25.2054 25.2121C25.6547 24.7627 25.9227 24.3454 26.1441 23.7721C26.3974 23.1147 26.5387 22.4121 26.5867 21.3721C26.6561 19.9001 26.6641 19.3854 26.6641 16.0001C26.6641 12.7014 26.6547 12.1627 26.5867 10.6281C26.5374 9.58542 26.3974 8.88141 26.1441 8.23075C25.9431 7.68675 25.6228 7.1947 25.2067 6.79075C24.8037 6.37321 24.3114 6.0523 23.7667 5.85208C23.1134 5.59875 22.4121 5.45875 21.3694 5.41075C19.8974 5.34141 19.3827 5.33341 15.9974 5.33341ZM15.9974 2.66675C19.6201 2.66675 20.0721 2.68008 21.4934 2.74675C22.9134 2.81341 23.8801 3.03608 24.7307 3.36675C25.6107 3.70541 26.3521 4.16408 27.0934 4.90408C27.7714 5.57061 28.296 6.37687 28.6307 7.26675C28.9601 8.11608 29.1841 9.08408 29.2507 10.5041C29.3134 11.9254 29.3307 12.3774 29.3307 16.0001C29.3307 19.6227 29.3174 20.0747 29.2507 21.4961C29.1841 22.9161 28.9601 23.8827 28.6307 24.7334C28.297 25.6238 27.7722 26.4302 27.0934 27.0961C26.4267 27.7738 25.6205 28.2984 24.7307 28.6334C23.8814 28.9627 22.9134 29.1868 21.4934 29.2534C20.0721 29.3161 19.6201 29.3334 15.9974 29.3334C12.3747 29.3334 11.9227 29.3201 10.5014 29.2534C9.0814 29.1868 8.11473 28.9627 7.26406 28.6334C6.37383 28.2994 5.56743 27.7747 4.9014 27.0961C4.22327 26.4297 3.69864 25.6234 3.36406 24.7334C3.0334 23.8841 2.81073 22.9161 2.74406 21.4961C2.6814 20.0747 2.66406 19.6227 2.66406 16.0001C2.66406 12.3774 2.6774 11.9254 2.74406 10.5041C2.81073 9.08275 3.0334 8.11741 3.36406 7.26675C3.69771 6.37632 4.22247 5.56984 4.9014 4.90408C5.56762 4.22572 6.37397 3.70105 7.26406 3.36675C8.11473 3.03608 9.08006 2.81341 10.5014 2.74675C11.9227 2.68408 12.3747 2.66675 15.9974 2.66675Z" fill="#0C0B10"/>
</svg>
