<svg width="32" height="32" viewBox="0 0 32 32" fill="none" xmlns="http://www.w3.org/2000/svg">
<path d="M15.9974 11.9989C14.9365 11.9989 13.9191 12.4203 13.169 13.1704C12.4188 13.9206 11.9974 14.938 11.9974 15.9989C11.9974 17.0597 12.4188 18.0771 13.169 18.8273C13.9191 19.5774 14.9365 19.9989 15.9974 19.9989C17.0583 19.9989 18.0757 19.5774 18.8258 18.8273C19.576 18.0771 19.9974 17.0597 19.9974 15.9989C19.9974 14.938 19.576 13.9206 18.8258 13.1704C18.0757 12.4203 17.0583 11.9989 15.9974 11.9989ZM15.9974 9.33219C17.7655 9.33219 19.4612 10.0346 20.7114 11.2848C21.9617 12.5351 22.6641 14.2308 22.6641 15.9989C22.6641 17.767 21.9617 19.4627 20.7114 20.7129C19.4612 21.9631 17.7655 22.6655 15.9974 22.6655C14.2293 22.6655 12.5336 21.9631 11.2834 20.7129C10.0331 19.4627 9.33073 17.767 9.33073 15.9989C9.33073 14.2308 10.0331 12.5351 11.2834 11.2848C12.5336 10.0346 14.2293 9.33219 15.9974 9.33219ZM24.6641 8.99886C24.6641 9.44089 24.4885 9.86481 24.1759 10.1774C23.8633 10.4899 23.4394 10.6655 22.9974 10.6655C22.5554 10.6655 22.1314 10.4899 21.8189 10.1774C21.5063 9.86481 21.3307 9.44089 21.3307 8.99886C21.3307 8.55683 21.5063 8.13291 21.8189 7.82035C22.1314 7.50779 22.5554 7.33219 22.9974 7.33219C23.4394 7.33219 23.8633 7.50779 24.1759 7.82035C24.4885 8.13291 24.6641 8.55683 24.6641 8.99886ZM15.9974 5.33219C12.6987 5.33219 12.1601 5.34153 10.6254 5.40953C9.58006 5.45886 8.87873 5.59886 8.22806 5.85219C7.6494 6.07619 7.23206 6.34419 6.78806 6.78953C6.37074 7.19273 6.04987 7.68497 5.8494 8.22953C5.59606 8.88286 5.45606 9.58286 5.40806 10.6269C5.33873 12.0989 5.33073 12.6135 5.33073 15.9989C5.33073 19.2975 5.34006 19.8362 5.40806 21.3709C5.4574 22.4149 5.5974 23.1175 5.8494 23.7669C6.07606 24.3469 6.34273 24.7642 6.7854 25.2069C7.23473 25.6549 7.65206 25.9229 8.2254 26.1442C8.88406 26.3989 9.5854 26.5402 10.6254 26.5882C12.0974 26.6575 12.6121 26.6655 15.9974 26.6655C19.2961 26.6655 19.8347 26.6562 21.3694 26.5882C22.4121 26.5389 23.1147 26.3989 23.7654 26.1469C24.3427 25.9215 24.7627 25.6535 25.2054 25.2109C25.6547 24.7615 25.9227 24.3442 26.1441 23.7709C26.3974 23.1135 26.5387 22.4109 26.5867 21.3709C26.6561 19.8989 26.6641 19.3842 26.6641 15.9989C26.6641 12.7002 26.6547 12.1615 26.5867 10.6269C26.5374 9.58419 26.3974 8.88019 26.1441 8.22953C25.9431 7.68553 25.6228 7.19347 25.2067 6.78953C24.8037 6.37199 24.3114 6.05108 23.7667 5.85086C23.1134 5.59753 22.4121 5.45753 21.3694 5.40953C19.8974 5.34019 19.3827 5.33219 15.9974 5.33219ZM15.9974 2.66553C19.6201 2.66553 20.0721 2.67886 21.4934 2.74553C22.9134 2.81219 23.8801 3.03486 24.7307 3.36553C25.6107 3.70419 26.3521 4.16286 27.0934 4.90286C27.7714 5.56939 28.296 6.37565 28.6307 7.26553C28.9601 8.11486 29.1841 9.08286 29.2507 10.5029C29.3134 11.9242 29.3307 12.3762 29.3307 15.9989C29.3307 19.6215 29.3174 20.0735 29.2507 21.4949C29.1841 22.9149 28.9601 23.8815 28.6307 24.7322C28.297 25.6226 27.7722 26.429 27.0934 27.0949C26.4267 27.7726 25.6205 28.2972 24.7307 28.6322C23.8814 28.9615 22.9134 29.1855 21.4934 29.2522C20.0721 29.3149 19.6201 29.3322 15.9974 29.3322C12.3747 29.3322 11.9227 29.3189 10.5014 29.2522C9.0814 29.1855 8.11473 28.9615 7.26406 28.6322C6.37383 28.2982 5.56743 27.7735 4.9014 27.0949C4.22327 26.4284 3.69864 25.6222 3.36406 24.7322C3.0334 23.8829 2.81073 22.9149 2.74406 21.4949C2.6814 20.0735 2.66406 19.6215 2.66406 15.9989C2.66406 12.3762 2.6774 11.9242 2.74406 10.5029C2.81073 9.08153 3.0334 8.11619 3.36406 7.26553C3.69771 6.3751 4.22247 5.56862 4.9014 4.90286C5.56762 4.2245 6.37397 3.69983 7.26406 3.36553C8.11473 3.03486 9.08006 2.81219 10.5014 2.74553C11.9227 2.68286 12.3747 2.66553 15.9974 2.66553Z" fill="white"/>
</svg>
