<svg width="32" height="32" viewBox="0 0 32 32" fill="none" xmlns="http://www.w3.org/2000/svg">
<path d="M9.66808 24.6575L10.6334 25.2215C12.2613 26.171 14.1129 26.6694 15.9974 26.6655C18.1071 26.6655 20.1694 26.0399 21.9235 24.8679C23.6776 23.6958 25.0448 22.0299 25.8521 20.0808C26.6595 18.1317 26.8707 15.987 26.4591 13.9179C26.0476 11.8488 25.0316 9.94815 23.5399 8.45639C22.0481 6.96463 20.1475 5.94873 18.0784 5.53715C16.0092 5.12558 13.8645 5.33681 11.9155 6.14415C9.96638 6.95148 8.30047 8.31865 7.1284 10.0728C5.95634 11.8269 5.33075 13.8892 5.33075 15.9989C5.33075 17.9135 5.83341 19.7495 6.77608 21.3642L7.33875 22.3295L6.46808 25.5309L9.66808 24.6575ZM2.66941 29.3322L4.47208 22.7082C3.28426 20.672 2.66021 18.3562 2.66408 15.9989C2.66408 8.63486 8.63341 2.66553 15.9974 2.66553C23.3614 2.66553 29.3307 8.63486 29.3307 15.9989C29.3307 23.3629 23.3614 29.3322 15.9974 29.3322C13.6411 29.336 11.3263 28.7124 9.29075 27.5255L2.66941 29.3322ZM11.1854 9.74286C11.3641 9.72953 11.5441 9.72953 11.7227 9.73753C11.7947 9.74286 11.8667 9.75086 11.9387 9.75886C12.1507 9.78286 12.3841 9.91219 12.4627 10.0909C12.8601 10.9922 13.2467 11.9002 13.6201 12.8109C13.7027 13.0135 13.6534 13.2735 13.4961 13.5269C13.3879 13.6982 13.2708 13.8637 13.1454 14.0229C12.9947 14.2162 12.6707 14.5709 12.6707 14.5709C12.6707 14.5709 12.5387 14.7282 12.5894 14.9242C12.6081 14.9989 12.6694 15.1069 12.7254 15.1975L12.8041 15.3242C13.1454 15.8935 13.6041 16.4709 14.1641 17.0149C14.3241 17.1695 14.4801 17.3282 14.6481 17.4762C15.2721 18.0269 15.9787 18.4762 16.7414 18.8095L16.7481 18.8122C16.8614 18.8615 16.9187 18.8882 17.0841 18.9589C17.1667 18.9935 17.2521 19.0242 17.3387 19.0469C17.4283 19.0697 17.5226 19.0654 17.6097 19.0345C17.6969 19.0037 17.7728 18.9476 17.8281 18.8735C18.7934 17.7042 18.8814 17.6282 18.8894 17.6282V17.6309C18.9565 17.5683 19.0361 17.5208 19.1231 17.4916C19.21 17.4624 19.3022 17.4522 19.3934 17.4615C19.4734 17.4669 19.5547 17.4815 19.6294 17.5149C20.3374 17.8389 21.4961 18.3442 21.4961 18.3442L22.2721 18.6922C22.4027 18.7549 22.5214 18.9029 22.5254 19.0455C22.5307 19.1349 22.5387 19.2789 22.5081 19.5429C22.4654 19.8882 22.3614 20.3029 22.2574 20.5202C22.1862 20.6685 22.0917 20.8045 21.9774 20.9229C21.8429 21.0641 21.6956 21.1927 21.5374 21.3069C21.4827 21.348 21.4271 21.388 21.3707 21.4269C21.2049 21.5321 21.0345 21.63 20.8601 21.7202C20.5168 21.9025 20.1376 22.0072 19.7494 22.0269C19.5027 22.0402 19.2561 22.0589 19.0081 22.0455C18.9974 22.0455 18.2507 21.9295 18.2507 21.9295C16.3551 21.4309 14.6019 20.4968 13.1307 19.2015C12.8294 18.9362 12.5507 18.6509 12.2654 18.3669C11.0787 17.1869 10.1827 15.9135 9.63875 14.7109C9.36031 14.1206 9.2099 13.4781 9.19741 12.8255C9.19192 12.016 9.45654 11.2277 9.94941 10.5855C10.0467 10.4602 10.1387 10.3295 10.2974 10.1789C10.4667 10.0189 10.5734 9.93353 10.6894 9.87486C10.8436 9.79757 11.0119 9.75222 11.1841 9.74153L11.1854 9.74286Z" fill="white"/>
</svg>
