<svg width="32" height="32" viewBox="0 0 32 32" fill="none" xmlns="http://www.w3.org/2000/svg">
<path d="M9.66808 24.6587L10.6334 25.2227C12.2613 26.1722 14.1129 26.6706 15.9974 26.6667C18.1071 26.6667 20.1694 26.0412 21.9235 24.8691C23.6776 23.697 25.0448 22.0311 25.8521 20.082C26.6595 18.133 26.8707 15.9882 26.4591 13.9191C26.0476 11.85 25.0316 9.94937 23.5399 8.45761C22.0481 6.96585 20.1475 5.94995 18.0784 5.53837C16.0092 5.1268 13.8645 5.33803 11.9155 6.14537C9.96638 6.9527 8.30047 8.31987 7.1284 10.074C5.95634 11.8281 5.33075 13.8904 5.33075 16.0001C5.33075 17.9147 5.83341 19.7507 6.77608 21.3654L7.33875 22.3307L6.46808 25.5321L9.66808 24.6587ZM2.66941 29.3334L4.47208 22.7094C3.28426 20.6732 2.66021 18.3574 2.66408 16.0001C2.66408 8.63608 8.63341 2.66675 15.9974 2.66675C23.3614 2.66675 29.3307 8.63608 29.3307 16.0001C29.3307 23.3641 23.3614 29.3334 15.9974 29.3334C13.6411 29.3372 11.3263 28.7136 9.29075 27.5267L2.66941 29.3334ZM11.1854 9.74408C11.3641 9.73075 11.5441 9.73075 11.7227 9.73875C11.7947 9.74408 11.8667 9.75208 11.9387 9.76008C12.1507 9.78408 12.3841 9.91341 12.4627 10.0921C12.8601 10.9934 13.2467 11.9014 13.6201 12.8121C13.7027 13.0147 13.6534 13.2747 13.4961 13.5281C13.3879 13.6994 13.2708 13.8649 13.1454 14.0241C12.9947 14.2174 12.6707 14.5721 12.6707 14.5721C12.6707 14.5721 12.5387 14.7294 12.5894 14.9254C12.6081 15.0001 12.6694 15.1081 12.7254 15.1987L12.8041 15.3254C13.1454 15.8947 13.6041 16.4721 14.1641 17.0161C14.3241 17.1707 14.4801 17.3294 14.6481 17.4774C15.2721 18.0281 15.9787 18.4774 16.7414 18.8107L16.7481 18.8134C16.8614 18.8627 16.9187 18.8894 17.0841 18.9601C17.1667 18.9947 17.2521 19.0254 17.3387 19.0481C17.4283 19.0709 17.5226 19.0666 17.6097 19.0357C17.6969 19.0049 17.7728 18.9488 17.8281 18.8747C18.7934 17.7054 18.8814 17.6294 18.8894 17.6294V17.6321C18.9565 17.5695 19.0361 17.5221 19.1231 17.4929C19.21 17.4636 19.3022 17.4534 19.3934 17.4627C19.4734 17.4681 19.5547 17.4827 19.6294 17.5161C20.3374 17.8401 21.4961 18.3454 21.4961 18.3454L22.2721 18.6934C22.4027 18.7561 22.5214 18.9041 22.5254 19.0467C22.5307 19.1361 22.5387 19.2801 22.5081 19.5441C22.4654 19.8894 22.3614 20.3041 22.2574 20.5214C22.1862 20.6697 22.0917 20.8057 21.9774 20.9241C21.8429 21.0653 21.6956 21.1939 21.5374 21.3081C21.4827 21.3492 21.4271 21.3892 21.3707 21.4281C21.2049 21.5333 21.0345 21.6312 20.8601 21.7214C20.5168 21.9038 20.1376 22.0084 19.7494 22.0281C19.5027 22.0414 19.2561 22.0601 19.0081 22.0467C18.9974 22.0467 18.2507 21.9307 18.2507 21.9307C16.3551 21.4321 14.6019 20.498 13.1307 19.2027C12.8294 18.9374 12.5507 18.6521 12.2654 18.3681C11.0787 17.1881 10.1827 15.9147 9.63875 14.7121C9.36031 14.1218 9.2099 13.4793 9.19741 12.8267C9.19192 12.0172 9.45654 11.229 9.94941 10.5867C10.0467 10.4614 10.1387 10.3307 10.2974 10.1801C10.4667 10.0201 10.5734 9.93475 10.6894 9.87608C10.8436 9.79879 11.0119 9.75344 11.1841 9.74275L11.1854 9.74408Z" fill="#0C0B10"/>
</svg>
