<svg width="140" height="60" viewBox="0 0 140 60" fill="none" xmlns="http://www.w3.org/2000/svg">
<g clip-path="url(#clip0_3301_16114)">
<path d="M61.4846 64.4177C61.4846 67.6789 63.255 69.8243 63.255 69.8243C60.4037 68.541 59 66.8727 59 64.5205C59 62.1444 60.6188 60.0668 63.5202 58.7866C63.5202 58.786 61.4846 61.2649 61.4846 64.4177ZM79.061 63.908C79.2585 67.2721 76.5884 69.9127 76.5884 69.9127C79.609 68.6431 81.2684 66.5166 81.2684 64.0848C81.2684 61.7576 79.718 60.0518 76.9194 58.7653C76.9201 58.7647 78.8842 60.9056 79.061 63.908ZM9.30121 33.966C9.30121 34.2513 9.32001 34.5077 9.32001 34.793C9.32001 39.7563 7.93827 41.4967 5.04 41.4967C3.69587 41.4967 2.71724 41.0121 1.98813 39.8711C0.759982 37.9884 0.664062 34.9077 0.664062 30.0014C0.664062 25.8938 0.855902 23.1836 1.39318 21.8144C2.17997 19.8182 3.29339 19.0195 5.04 19.0195C7.97651 19.0195 9.2241 21.1874 9.24353 26.179H6.63301V25.6662C6.63301 23.3553 6.13398 22.2143 5.09768 22.2143C3.42755 22.2143 3.42755 24.4681 3.42755 29.945C3.42755 35.9352 3.42755 38.2461 5.07824 38.2461C6.36406 38.2461 6.69069 37.532 6.69069 34.2519V33.9667H9.30121V33.966ZM19.532 19.533H22.1996V27.9476H25.8846V19.533H28.5522V40.9838H25.8846V31.2571H22.1996V40.9838H19.532V19.533ZM41.7753 29.2309V22.5278H43.0335C44.5833 22.5278 45.2215 23.1271 45.2215 25.4091C45.2215 27.8053 44.7287 29.2309 43.2523 29.2309H41.7753ZM39.3134 40.9838H41.7747V32.1975H42.6499C44.4736 32.1975 45.2209 32.6545 45.2209 35.45V36.0205L45.2572 37.6467C45.2754 38.9877 45.3118 40.0717 45.4942 40.9845H48.521C48.0107 40.1858 47.8646 39.1871 47.8283 37.7897L47.7549 35.5641C47.7004 32.7975 47.7367 31.2571 45.8591 30.4866C47.1173 30.2014 47.7919 27.9482 47.7919 25.1527C47.7919 21.1592 46.6434 19.5336 43.8893 19.5336H39.3127V40.9838H39.3134ZM60.8821 32.5116L57.1011 19.533H60.0765L62.2645 28.2322L64.4142 19.533H67.3125L63.5891 32.5116V40.9838H60.8827V32.5116H60.8821ZM79.1933 34.2093V34.8224C79.1933 37.1326 79.4422 38.2454 80.671 38.2454C81.8226 38.2454 82.4176 37.3608 82.4176 35.7064C82.4176 34.166 81.8803 33.4526 80.7669 32.2834L79.3845 30.8289C77.5426 28.9174 76.6398 27.8053 76.6398 24.7816C76.6398 21.1881 78.1752 19.0202 80.6898 19.0202C83.358 19.0202 84.8356 21.2451 84.8356 25.3239C84.8356 25.5809 84.8356 25.5132 84.8162 25.7696H82.264V25.5232C82.264 23.2412 81.8032 22.2708 80.6133 22.2708C79.7494 22.2708 79.2309 23.0695 79.2309 24.4105C79.2309 25.7797 79.8836 26.4072 80.9199 27.4341L82.3975 28.9174C84.2977 30.8001 85.104 32.2552 85.104 35.3929C85.104 39.2723 83.5686 41.4973 80.7663 41.4973C77.868 41.4973 76.4668 39.3012 76.4668 34.7372C76.4668 34.3378 76.4856 34.6663 76.5057 34.2099H79.1933V34.2093ZM95.6676 19.533H98.3546V37.3326H102.897V40.9838H95.6676V19.533ZM112.469 19.533H119.878V23.0989H115.137V28.0623H119.552V31.4571H115.137V37.3615H119.993V40.9845H112.469V19.533ZM132.803 29.0146V22.625H133.748C135.298 22.625 135.72 23.2243 135.72 25.5063C135.72 27.9024 135.444 29.0146 133.967 29.0146H132.803ZM130.029 41.081H132.804V32.2947H133.679C135.502 32.2947 135.72 32.7517 135.72 35.5472V36.1177L135.757 37.7439C135.775 39.0849 135.812 40.1688 135.994 41.0816H139.237C138.727 40.2829 138.581 39.2843 138.544 37.8868L138.472 35.6613C138.417 32.8946 138.453 31.3543 136.576 30.5838C137.834 30.2985 138.509 28.0454 138.509 25.2499C138.509 21.2564 137.36 19.6308 134.606 19.6308H130.029V41.081H130.029Z" fill="#0C0B10"/>
</g>
<defs>
<clipPath id="clip0_3301_16114">
<rect width="140" height="21.9608" fill="white" transform="translate(0 19.0195)"/>
</clipPath>
</defs>
</svg>
