<svg width="140" height="60" viewBox="0 0 140 60" fill="none" xmlns="http://www.w3.org/2000/svg">
<path fill-rule="evenodd" clip-rule="evenodd" d="M92.9296 40.1064H96.7829V19.521H92.9296V40.1064ZM136.146 40.1064H140V19.521H136.146V40.1064ZM20.5046 40.1064H24.3579V19.521H20.5046V40.1064ZM39.0866 19.521H27.1688V23.0119H31.1414V40.1064H35.114V23.0119H39.0866V19.521ZM128.43 27.3461H119.753V19.521H115.9V40.1064H119.753V30.8369H128.43V40.1064H132.281V19.521H128.43V27.3461ZM8.06639 28.7299L4.45441 19.521H0V40.1064H3.85241V27.3461L8.06639 37.5782L12.1592 27.2259V40.1064H16.0107V19.521H11.6774L8.06639 28.7299ZM71.733 19.5229H67.9155V34.2094C67.9155 35.808 66.1251 37.1028 64.5265 37.1028C62.9288 37.1028 61.1384 35.808 61.1384 34.2094V19.5229H57.2502L57.3071 34.0295C57.3071 37.7434 60.8117 40.7543 64.5256 40.7543C68.2403 40.7543 71.745 37.7434 71.745 34.0295L71.733 19.5229ZM86.5911 28.9713C87.1326 28.6097 89.179 27.4057 89.179 24.8188C89.179 21.2059 86.2902 19.5816 84.363 19.522H75.4386V40.1073H83.3389C86.47 40.1073 89.8397 38.6023 89.8397 34.6297C89.8407 31.1985 88.2173 29.8734 86.5911 28.9713ZM83.5215 36.6155H79.2938V23.0119H83.3407C84.4254 23.0119 85.2679 23.9149 85.2679 24.9987C85.2679 26.0824 84.8466 27.3461 83.4022 27.3461H81.7192V30.8378H83.5224C84.6071 30.8378 86.1103 31.861 86.0516 33.9671C85.9983 35.7722 84.5447 36.6155 83.5215 36.6155ZM40.6293 33.4257C40.599 33.6358 40.6293 33.8772 40.643 34.2681C40.643 37.8177 43.5199 40.5147 47.0695 40.5147C50.6191 40.5147 53.496 38.1196 53.496 34.5691C53.496 32.7016 52.7646 31.2591 51.4936 30.0844C50.4558 29.1264 47.499 27.6893 46.3473 26.9845C45.2635 26.322 44.7524 25.8117 44.7267 24.8482C44.7267 23.4377 45.6591 22.4448 47.0695 22.4448C47.7469 22.4448 48.3965 22.7138 48.8754 23.1928C49.3544 23.6717 49.6234 24.3213 49.6234 24.9987C49.6491 25.3602 49.6583 25.7209 49.6583 25.9613H53.0711V24.9987C53.0711 21.6849 50.9825 19.0576 47.0695 19.0576C43.7558 19.0576 41.0679 21.327 41.0679 24.9987C41.0798 26.6239 41.8323 28.1885 43.6989 29.4228C45.704 30.7479 48.213 31.739 49.0554 32.5823C49.5638 33.0907 49.8785 33.7928 49.8785 34.5682C49.8785 36.1191 48.6204 37.2267 47.0686 37.2267C45.5168 37.2267 44.2697 35.8621 44.0788 34.5682C44.0384 34.2378 43.9384 33.6661 43.9687 33.4248H40.6293V33.4257ZM105.696 26.9845C104.612 26.322 104.101 25.8117 104.074 24.8482C104.074 23.4377 105.008 22.4448 106.418 22.4448C107.096 22.4452 107.745 22.7145 108.223 23.1934C108.702 23.6723 108.971 24.3216 108.971 24.9987C108.997 25.3602 109.006 25.7209 109.006 25.9613H112.419V24.9987C112.419 21.6849 110.33 19.0576 106.418 19.0576C103.103 19.0576 100.416 21.327 100.416 24.9987C100.429 26.6239 101.181 28.1885 103.047 29.4228C105.053 30.7479 107.562 31.739 108.404 32.5823C108.912 33.0907 109.227 33.7928 109.227 34.5682C109.227 36.1191 107.968 37.2267 106.418 37.2267C104.866 37.2267 103.618 35.8621 103.426 34.5682C103.386 34.2378 103.286 33.6661 103.317 33.4248H99.9755C99.9452 33.6349 99.9755 33.8763 99.9902 34.2672C99.9902 37.8168 102.867 40.5138 106.418 40.5138C109.966 40.5138 112.843 38.1187 112.843 34.5682C112.843 32.7007 112.112 31.2581 110.841 30.0835C109.804 29.1264 106.847 27.6893 105.696 26.9845Z" fill="#0C0B10"/>
</svg>
