<svg width="140" height="60" viewBox="0 0 140 60" fill="none" xmlns="http://www.w3.org/2000/svg">
<g clip-path="url(#clip0_3301_43645)">
<path fill-rule="evenodd" clip-rule="evenodd" d="M0.947658 22.5258L0.900335 23.2837H1.60939C2.12994 23.2837 2.79166 23.3303 2.79166 23.992L2.55505 36.8086C2.55505 37.2818 2.31844 37.8023 1.37277 37.8023H0.66451L0.617188 38.5587H5.39362V37.8023H4.58993C3.97473 37.8023 3.54962 37.6131 3.54962 36.8086L3.78544 24.5126L8.89392 37.7542H9.41368L14.5687 24.3706L14.8053 36.8086C14.8053 37.2337 14.3794 37.8023 13.7177 37.8023H12.7247V38.5587H18.7307V37.8023H18.0209C17.5011 37.8023 16.8859 37.5176 16.8859 36.8551L16.6493 24.1821C16.6493 23.757 17.1225 23.2837 17.595 23.2837H18.4933V22.5258H14.1901L9.74415 34.1609L5.29898 22.5258H0.947658ZM21.1891 32.7885H28.3025C28.3025 29.427 26.8174 26.702 23.5537 26.702C20.5274 26.702 18.8049 29.427 18.8049 32.7885C18.8049 36.15 20.2427 38.875 23.5537 38.875C26.7693 38.875 27.7157 37.2818 28.2087 34.7327L27.1005 34.728C27.0059 35.6736 26.3915 37.8023 24.0269 37.8489C21.3319 37.9025 21.1418 34.444 21.1891 32.7885ZM34.1003 38.5587V37.9443H33.6271C33.2012 37.9443 32.4448 37.8023 32.4448 36.9505V30.7552C32.4448 28.8158 33.4378 28.1075 34.4308 28.1075C34.8086 28.1075 35.046 28.2968 34.9514 29.0058C34.8567 29.7157 35.4719 30.1889 35.9917 30.1408C36.5114 30.0927 37.174 29.9988 37.0793 28.6746C36.9847 27.3511 36.2283 26.7367 34.904 26.7367C33.8637 26.7367 33.0119 27.3977 32.7753 27.7289C32.5 28.1138 32.1609 27.9663 32.1136 27.5412C32.0663 27.1145 31.877 26.6894 31.4045 26.8314C30.3634 27.1626 29.4178 27.3046 28.6141 27.3519V27.8252C30.6008 27.7297 30.4108 28.7235 30.4108 29.1959V36.9521C30.4108 37.8039 29.6544 37.9459 29.2285 37.9459H28.5667V38.5603H34.1003V38.5587ZM44.591 27.4552C43.8938 26.9465 43.0175 26.6555 41.9504 26.6555C38.9241 26.6555 37.2016 29.3805 37.2016 32.742C37.2016 36.1035 38.6394 38.8111 41.9504 38.8285C44.8828 38.8426 45.5919 37.1864 46.0856 34.6388L44.9767 34.6341C44.882 35.5798 44.5508 37.755 42.4228 37.8031C39.7278 37.8615 39.5377 34.3975 39.585 32.7428C39.585 31.7017 39.727 27.5404 41.9969 27.5404C43.9356 27.5404 45.1186 28.9112 45.1186 30.4721H45.733V26.4993H45.2133L44.591 27.4552ZM66.9218 36.0987V22.9044C66.9218 22.361 66.6378 21.9106 66.1654 22.0526C65.1251 22.3838 64.1786 22.5258 63.3749 22.5731V23.0463C64.7465 22.9525 64.8885 23.3776 64.8885 23.8508V27.9174C64.2733 27.3503 63.5642 26.7825 62.2873 26.7825C60.6791 26.7825 57.7002 28.0594 57.7002 32.5527C57.7002 38.4633 61.1523 38.8427 62.1927 38.8427C63.233 38.8427 64.6045 37.9924 64.8885 37.5429C64.9121 37.4474 65.0533 37.3299 65.1014 37.5429C65.1488 37.968 65.4556 38.6076 65.9288 38.4641C66.8338 38.1758 67.7711 38.0015 68.7192 37.9451V37.4719C66.7325 37.5649 66.9218 36.5712 66.9218 36.0987ZM94.5401 31.7963V30.7071H88.2982V31.7963H94.5401ZM79.7375 34.5379V38.5587H80.2581L80.7313 37.5176C81.2045 37.9443 82.196 38.6526 83.4737 38.6526C84.7514 38.6526 86.5481 37.9443 87.2571 36.6193C87.9669 35.2942 87.6357 33.119 86.0275 32.4573C84.6197 31.8783 83.3838 31.1835 82.4333 30.7071C81.677 30.3293 81.494 29.5729 81.5815 29.1005C81.7235 28.3441 82.386 27.5396 83.8996 27.4923C85.4123 27.4442 86.1687 28.7219 86.358 30.1881H86.8785V26.4047H86.4053L85.8848 27.303C84.891 26.6405 84.4659 26.5467 83.5675 26.5467C82.6676 26.5467 81.1549 27.0199 80.303 28.3441C79.4528 29.6676 79.6886 31.7482 81.7219 32.6C83.7552 33.4502 84.7025 33.9708 85.2696 34.2547C85.8366 34.5387 86.1679 35.6736 85.7901 36.3361C85.4115 36.9987 84.7025 37.755 83.5675 37.755C82.4326 37.755 80.6343 36.9505 80.2092 34.5387H79.7375V34.5379ZM96.6688 36.146V24.4645C96.6688 23.283 95.4392 23.1394 94.7294 23.1394V22.525H101.823C105.133 22.525 105.654 24.843 105.654 26.2146C105.654 27.5862 104.519 29.6187 103.383 29.9042C105.654 30.3774 106.41 32.2214 106.41 33.7815C106.316 38.4167 102.295 38.5587 100.545 38.5587H94.7286V37.8962C96.6215 37.8962 96.6688 36.8086 96.6688 36.146ZM125.611 29.9507V36.9505C125.611 37.8023 124.854 37.9443 124.429 37.9443H124.146V38.5587H129.3V37.9443H128.827C128.402 37.9443 127.645 37.8023 127.645 36.9505V29.9988C127.597 26.8298 124.76 26.7359 123.767 26.7359C122.727 26.7359 121.591 27.3969 121.354 27.7281C121.079 28.113 120.739 27.9655 120.693 27.5404C120.645 27.1137 120.456 26.6886 119.983 26.8306C118.944 27.1618 117.997 27.3038 117.193 27.3511V27.8244C119.179 27.7289 118.989 28.7227 118.989 29.1951V36.9513C118.989 37.8031 118.233 37.9451 117.808 37.9451H117.145V38.5595H122.679V37.9451H122.206C121.781 37.9451 121.023 37.8031 121.023 36.9513V30.756C121.023 29.7165 121.401 28.0602 123.341 27.9182C125.279 27.7755 125.611 29.0524 125.611 29.9507ZM130.34 30.1881L131.192 26.9718H139.232L132.327 37.897H136.015C136.867 37.897 137.53 37.5657 138.428 35.3905H138.806L138.05 38.5595H129.821L136.677 27.6343H133.604C132.848 27.6343 131.996 27.6343 130.813 30.1881H130.34ZM49.5646 32.7885H56.678C56.678 29.427 55.1921 26.702 51.9292 26.702C48.9029 26.702 47.1803 29.427 47.1803 32.7885C47.1803 36.15 48.6189 38.875 51.9292 38.875C55.1455 38.875 56.0912 37.2818 56.5849 34.7327L55.476 34.728C55.3813 35.6736 54.7669 37.8023 52.4024 37.8489C49.7074 37.9025 49.5173 34.444 49.5646 32.7885ZM71.1295 32.7885H78.2437C78.2437 29.427 76.7586 26.702 73.4957 26.702C70.4686 26.702 68.7461 29.427 68.7461 32.7885C68.7461 36.15 70.1847 38.875 73.4957 38.875C76.7105 38.875 77.6561 37.2818 78.1491 34.7327L77.0417 34.728C76.9479 35.6736 76.3335 37.8023 73.9673 37.8489C71.2731 37.9025 71.0838 34.444 71.1295 32.7885ZM109.817 32.7885H116.929C116.929 29.427 115.444 26.702 112.18 26.702C109.155 26.702 107.432 29.427 107.432 32.7885C107.432 36.15 108.869 38.875 112.18 38.875C115.397 38.875 116.342 37.2818 116.835 34.7327L115.728 34.728C115.634 35.6736 115.018 37.8023 112.654 37.8489C109.959 37.9025 109.769 34.444 109.817 32.7885Z" fill="#0C0B10"/>
<path fill-rule="evenodd" clip-rule="evenodd" d="M21.2427 31.8416C21.2427 30.802 21.148 27.7269 23.6545 27.7269C25.6405 27.7269 25.9244 30.2807 25.9244 31.8416H21.2427ZM64.8939 34.6793C64.8465 37.2813 63.475 38.085 62.34 38.085C59.7862 38.0369 59.9755 34.1596 59.9755 32.5041C59.9755 30.8494 60.0701 27.5857 62.3874 27.8688C64.7046 28.1536 64.8939 30.6128 64.8939 32.079V34.6793ZM98.7083 37.8018H101.119C102.917 37.8018 104.336 36.383 104.336 34.0168C104.336 31.6538 102.965 30.5646 101.404 30.5646H98.7083V37.8018ZM98.7083 29.8083H101.073C102.917 29.8083 103.531 28.2474 103.531 26.2141C103.531 24.5578 102.823 23.2825 101.073 23.2825H98.7083V29.8083ZM49.6189 31.8416C49.6189 30.802 49.5243 27.7269 52.0308 27.7269C54.0175 27.7269 54.3007 30.2807 54.3007 31.8416H49.6189ZM71.1838 31.8416C71.1838 30.802 71.09 27.7269 73.5965 27.7269C75.5825 27.7269 75.8656 30.2807 75.8656 31.8416H71.1838ZM109.869 31.8416C109.869 30.802 109.775 27.7269 112.282 27.7269C114.268 27.7269 114.553 30.2807 114.553 31.8416H109.869Z" fill="white"/>
</g>
<defs>
<clipPath id="clip0_3301_43645">
<rect width="140" height="16.4706" fill="white" transform="translate(0 21.7646)"/>
</clipPath>
</defs>
</svg>
